<svg xmlns="http://www.w3.org/2000/svg" xmlns:xlink="http://www.w3.org/1999/xlink" zoomAndPan="magnify" preserveAspectRatio="xMidYMid meet" version="1.0" viewBox="0.58 1 317.42 184"><defs><g/><clipPath id="6792422769"><path d="M 45 132.644531 L 217.628906 132.644531 L 217.628906 171.265625 L 45 171.265625 Z M 45 132.644531 " clip-rule="nonzero"/></clipPath><clipPath id="e84cf2b9f6"><path d="M 0.578125 1 L 318 1 L 318 136 L 0.578125 136 Z M 0.578125 1 " clip-rule="nonzero"/></clipPath><clipPath id="27b9faf3d7"><path d="M 0.578125 51 L 222 51 L 222 185 L 0.578125 185 Z M 0.578125 51 " clip-rule="nonzero"/></clipPath><clipPath id="8533b3b013"><path d="M 208.457031 107.929688 L 244.335938 107.929688 L 244.335938 143.808594 L 208.457031 143.808594 Z M 208.457031 107.929688 " clip-rule="nonzero"/></clipPath><clipPath id="17291fce0e"><path d="M 207.011719 105.769531 L 239.898438 105.769531 L 239.898438 138.660156 L 207.011719 138.660156 Z M 207.011719 105.769531 " clip-rule="nonzero"/></clipPath></defs><g clip-path="url(#6792422769)"><path fill="#201e1d" d="M 46.023438 171.226562 C 46.207031 162.808594 51.125 155.164062 57.859375 151.359375 C 72.128906 144.40625 90.144531 151.292969 104.828125 155.132812 C 125.097656 160.886719 145.640625 168.132812 167.113281 168 C 188.753906 167.605469 211.675781 154.480469 217.535156 132.820312 C 197.824219 163.589844 163.128906 163.128906 130.941406 154.21875 C 109.527344 150.253906 75.859375 135.761719 56.058594 148.539062 C 48.691406 153.726562 44.820312 162.898438 46.023438 171.226562 Z M 46.023438 171.226562 " fill-opacity="1" fill-rule="nonzero"/></g><g fill="#201e1d" fill-opacity="1"><g transform="translate(39.42427, 103.231508)"><g><path d="M 71.484375 -22.328125 C 71.921875 -22.984375 72.492188 -23.21875 73.203125 -23.03125 C 73.910156 -22.84375 74.492188 -22.472656 74.953125 -21.921875 C 75.410156 -21.378906 75.476562 -20.835938 75.15625 -20.296875 C 74.613281 -19.429688 73.960938 -18.164062 73.203125 -16.5 C 72.441406 -14.84375 71.53125 -13.078125 70.46875 -11.203125 C 69.40625 -9.328125 68.164062 -7.535156 66.75 -5.828125 C 65.34375 -4.117188 63.753906 -2.71875 61.984375 -1.625 C 60.222656 -0.539062 58.226562 0 56 0 C 54.09375 0 52.554688 -0.539062 51.390625 -1.625 C 50.222656 -2.71875 49.378906 -4.1875 48.859375 -6.03125 C 48.347656 -7.875 48.09375 -9.910156 48.09375 -12.140625 C 48.09375 -13.171875 48.144531 -14.257812 48.25 -15.40625 C 48.363281 -16.550781 48.53125 -17.75 48.75 -19 C 47.007812 -19.101562 45.3125 -19.265625 43.65625 -19.484375 C 42 -19.703125 40.378906 -20 38.796875 -20.375 C 38.304688 -19.507812 37.816406 -18.628906 37.328125 -17.734375 C 36.835938 -16.835938 36.347656 -15.953125 35.859375 -15.078125 C 34.015625 -11.867188 31.882812 -8.851562 29.46875 -6.03125 C 27.050781 -3.207031 24.46875 -0.925781 21.71875 0.8125 C 18.976562 2.550781 16.140625 3.421875 13.203125 3.421875 C 9.503906 3.421875 6.5 2.753906 4.1875 1.421875 C 1.882812 0.0859375 0.203125 -1.632812 -0.859375 -3.75 C -1.921875 -5.863281 -2.453125 -8.035156 -2.453125 -10.265625 C -2.453125 -12.492188 -2 -14.628906 -1.09375 -16.671875 C -0.195312 -18.710938 1.0625 -20.367188 2.6875 -21.640625 C 4.320312 -22.921875 6.222656 -23.5625 8.390625 -23.5625 C 9.210938 -23.5625 9.625 -23.234375 9.625 -22.578125 C 9.625 -20.785156 10.394531 -19.332031 11.9375 -18.21875 C 13.488281 -17.101562 15.378906 -16.546875 17.609375 -16.546875 C 20.160156 -16.546875 22.507812 -17.171875 24.65625 -18.421875 C 26.800781 -19.671875 28.800781 -21.351562 30.65625 -23.46875 C 26.46875 -25.59375 23.148438 -28.335938 20.703125 -31.703125 C 18.253906 -35.078125 17.03125 -38.800781 17.03125 -42.875 C 17.03125 -45.757812 17.640625 -48.175781 18.859375 -50.125 C 20.085938 -52.082031 21.707031 -53.578125 23.71875 -54.609375 C 25.726562 -55.648438 27.875 -56.171875 30.15625 -56.171875 C 33.257812 -56.171875 35.53125 -55.367188 36.96875 -53.765625 C 38.40625 -52.160156 39.125 -50.40625 39.125 -48.5 C 39.175781 -47.90625 39.039062 -47.414062 38.71875 -47.03125 C 38.394531 -46.65625 37.929688 -46.492188 37.328125 -46.546875 C 36.296875 -46.648438 35.25 -46.507812 34.1875 -46.125 C 33.132812 -45.75 32.253906 -45.03125 31.546875 -43.96875 C 30.835938 -42.914062 30.484375 -41.382812 30.484375 -39.375 C 30.484375 -35.1875 32.003906 -31.816406 35.046875 -29.265625 C 35.429688 -29.859375 35.800781 -30.46875 36.15625 -31.09375 C 36.507812 -31.71875 36.875 -32.359375 37.25 -33.015625 C 41.382812 -40.460938 45.328125 -46.234375 49.078125 -50.328125 C 52.828125 -54.429688 56.382812 -57.285156 59.75 -58.890625 C 63.125 -60.492188 66.300781 -61.296875 69.28125 -61.296875 C 72.164062 -61.296875 74.285156 -60.519531 75.640625 -58.96875 C 77.003906 -57.425781 77.6875 -55.539062 77.6875 -53.3125 C 77.632812 -50.695312 77.019531 -48.453125 75.84375 -46.578125 C 74.675781 -44.710938 73.222656 -43.78125 71.484375 -43.78125 C 70.941406 -43.78125 70.453125 -43.925781 70.015625 -44.21875 C 69.585938 -44.519531 69.070312 -44.644531 68.46875 -44.59375 C 67.65625 -44.59375 66.757812 -43.882812 65.78125 -42.46875 C 64.800781 -41.050781 63.796875 -38.660156 62.765625 -35.296875 C 62.273438 -33.609375 61.796875 -31.8125 61.328125 -29.90625 C 60.867188 -28.007812 60.640625 -26.273438 60.640625 -24.703125 C 60.640625 -23.015625 60.953125 -21.640625 61.578125 -20.578125 C 62.203125 -19.523438 63.28125 -19 64.8125 -19 C 66.0625 -19 67.296875 -19.253906 68.515625 -19.765625 C 69.734375 -20.285156 70.722656 -21.140625 71.484375 -22.328125 Z M 49.96875 -24.53125 C 51.050781 -28.34375 52.066406 -31.375 53.015625 -33.625 C 53.972656 -35.882812 54.75 -37.691406 55.34375 -39.046875 C 55.945312 -40.398438 56.25 -41.625 56.25 -42.71875 C 56.25 -43.476562 55.921875 -43.859375 55.265625 -43.859375 C 54.722656 -43.859375 54.148438 -43.648438 53.546875 -43.234375 C 52.953125 -42.828125 52.054688 -41.921875 50.859375 -40.515625 C 49.234375 -38.390625 47.671875 -36.078125 46.171875 -33.578125 C 44.679688 -31.078125 43.203125 -28.5 41.734375 -25.84375 C 42.929688 -25.457031 44.222656 -25.171875 45.609375 -24.984375 C 46.992188 -24.796875 48.445312 -24.644531 49.96875 -24.53125 Z M 49.96875 -24.53125 "/></g></g></g><g fill="#201e1d" fill-opacity="1"><g transform="translate(109.028498, 103.231508)"><g><path d="M 6.921875 0 C 4.046875 0 2.035156 -0.800781 0.890625 -2.40625 C -0.242188 -4.007812 -0.8125 -6.003906 -0.8125 -8.390625 C -0.8125 -10.460938 -0.550781 -12.71875 -0.03125 -15.15625 C 0.476562 -17.601562 1.140625 -19.992188 1.953125 -22.328125 C 4.722656 -30.265625 7.070312 -36.921875 9 -42.296875 C 10.9375 -47.679688 12.800781 -51.742188 14.59375 -54.484375 C 16.382812 -57.234375 18.367188 -58.609375 20.546875 -58.609375 C 22.222656 -58.609375 23.28125 -57.96875 23.71875 -56.6875 C 24.15625 -55.414062 23.75 -53.503906 22.5 -50.953125 C 20.269531 -46.441406 18.351562 -42.269531 16.75 -38.4375 C 15.144531 -34.601562 13.882812 -30.972656 12.96875 -27.546875 C 12.53125 -25.972656 12.210938 -24.46875 12.015625 -23.03125 C 11.828125 -21.59375 12.003906 -20.421875 12.546875 -19.515625 C 13.097656 -18.617188 14.1875 -18.171875 15.8125 -18.171875 C 17.226562 -18.171875 18.460938 -18.535156 19.515625 -19.265625 C 20.578125 -20.003906 21.546875 -21.023438 22.421875 -22.328125 C 22.847656 -22.984375 23.414062 -23.21875 24.125 -23.03125 C 24.832031 -22.84375 25.414062 -22.472656 25.875 -21.921875 C 26.34375 -21.378906 26.410156 -20.835938 26.078125 -20.296875 C 25.535156 -19.429688 24.882812 -18.164062 24.125 -16.5 C 23.363281 -14.84375 22.453125 -13.078125 21.390625 -11.203125 C 20.335938 -9.328125 19.101562 -7.535156 17.6875 -5.828125 C 16.269531 -4.117188 14.675781 -2.71875 12.90625 -1.625 C 11.144531 -0.539062 9.148438 0 6.921875 0 Z M 6.921875 0 "/></g></g></g><g fill="#201e1d" fill-opacity="1"><g transform="translate(129.567456, 103.231508)"><g><path d="M 6.921875 0 C 4.046875 0 2.035156 -0.800781 0.890625 -2.40625 C -0.242188 -4.007812 -0.8125 -6.003906 -0.8125 -8.390625 C -0.8125 -10.460938 -0.550781 -12.71875 -0.03125 -15.15625 C 0.476562 -17.601562 1.140625 -19.992188 1.953125 -22.328125 C 4.722656 -30.265625 7.070312 -36.921875 9 -42.296875 C 10.9375 -47.679688 12.800781 -51.742188 14.59375 -54.484375 C 16.382812 -57.234375 18.367188 -58.609375 20.546875 -58.609375 C 22.222656 -58.609375 23.28125 -57.96875 23.71875 -56.6875 C 24.15625 -55.414062 23.75 -53.503906 22.5 -50.953125 C 20.269531 -46.441406 18.351562 -42.269531 16.75 -38.4375 C 15.144531 -34.601562 13.882812 -30.972656 12.96875 -27.546875 C 12.53125 -25.972656 12.210938 -24.46875 12.015625 -23.03125 C 11.828125 -21.59375 12.003906 -20.421875 12.546875 -19.515625 C 13.097656 -18.617188 14.1875 -18.171875 15.8125 -18.171875 C 17.226562 -18.171875 18.460938 -18.535156 19.515625 -19.265625 C 20.578125 -20.003906 21.546875 -21.023438 22.421875 -22.328125 C 22.847656 -22.984375 23.414062 -23.21875 24.125 -23.03125 C 24.832031 -22.84375 25.414062 -22.472656 25.875 -21.921875 C 26.34375 -21.378906 26.410156 -20.835938 26.078125 -20.296875 C 25.535156 -19.429688 24.882812 -18.164062 24.125 -16.5 C 23.363281 -14.84375 22.453125 -13.078125 21.390625 -11.203125 C 20.335938 -9.328125 19.101562 -7.535156 17.6875 -5.828125 C 16.269531 -4.117188 14.675781 -2.71875 12.90625 -1.625 C 11.144531 -0.539062 9.148438 0 6.921875 0 Z M 6.921875 0 "/></g></g></g><g fill="#201e1d" fill-opacity="1"><g transform="translate(150.106413, 103.231508)"><g><path d="M 16.390625 -44.09375 C 14.429688 -44.09375 12.742188 -44.515625 11.328125 -45.359375 C 9.921875 -46.203125 9.21875 -47.710938 9.21875 -49.890625 C 9.21875 -52.765625 10.015625 -54.734375 11.609375 -55.796875 C 13.210938 -56.859375 15.128906 -57.390625 17.359375 -57.390625 C 19.421875 -57.390625 21.171875 -56.925781 22.609375 -56 C 24.054688 -55.070312 24.671875 -53.332031 24.453125 -50.78125 C 24.234375 -48.28125 23.363281 -46.539062 21.84375 -45.5625 C 20.320312 -44.582031 18.503906 -44.09375 16.390625 -44.09375 Z M 7.34375 0 C 4.625 0 2.691406 -0.988281 1.546875 -2.96875 C 0.410156 -4.957031 -0.15625 -7.363281 -0.15625 -10.1875 C -0.15625 -12.09375 0.03125 -14.101562 0.40625 -16.21875 C 0.789062 -18.34375 1.28125 -20.378906 1.875 -22.328125 C 3.78125 -28.253906 5.628906 -32.804688 7.421875 -35.984375 C 9.210938 -39.160156 11.273438 -40.75 13.609375 -40.75 C 15.460938 -40.75 16.390625 -39.53125 16.390625 -37.09375 C 16.390625 -35.457031 16.078125 -33.785156 15.453125 -32.078125 C 14.828125 -30.367188 14.210938 -28.679688 13.609375 -27.015625 C 13.015625 -25.359375 12.71875 -23.796875 12.71875 -22.328125 C 12.71875 -20.972656 13.054688 -19.957031 13.734375 -19.28125 C 14.410156 -18.601562 15.296875 -18.265625 16.390625 -18.265625 C 17.640625 -18.265625 18.679688 -18.644531 19.515625 -19.40625 C 20.359375 -20.164062 21.191406 -21.140625 22.015625 -22.328125 C 22.441406 -22.984375 22.992188 -23.226562 23.671875 -23.0625 C 24.359375 -22.90625 24.929688 -22.539062 25.390625 -21.96875 C 25.847656 -21.394531 25.941406 -20.863281 25.671875 -20.375 C 25.128906 -19.507812 24.488281 -18.257812 23.75 -16.625 C 23.019531 -15 22.140625 -13.234375 21.109375 -11.328125 C 20.078125 -9.429688 18.894531 -7.625 17.5625 -5.90625 C 16.226562 -4.195312 14.71875 -2.785156 13.03125 -1.671875 C 11.351562 -0.554688 9.457031 0 7.34375 0 Z M 7.34375 0 "/></g></g></g><g fill="#201e1d" fill-opacity="1"><g transform="translate(170.156338, 103.231508)"><g><path d="M 33.5 -22.328125 C 33.9375 -22.984375 34.492188 -23.21875 35.171875 -23.03125 C 35.847656 -22.84375 36.414062 -22.472656 36.875 -21.921875 C 37.34375 -21.378906 37.441406 -20.835938 37.171875 -20.296875 C 36.734375 -19.367188 36.09375 -18.078125 35.25 -16.421875 C 34.40625 -14.765625 33.34375 -13 32.0625 -11.125 C 30.789062 -9.25 29.242188 -7.46875 27.421875 -5.78125 C 25.609375 -4.101562 23.519531 -2.734375 21.15625 -1.671875 C 18.789062 -0.609375 16.085938 -0.078125 13.046875 -0.078125 C 9.453125 -0.078125 6.609375 -0.835938 4.515625 -2.359375 C 2.429688 -3.878906 1.007812 -5.804688 0.25 -8.140625 C -0.507812 -10.484375 -0.726562 -12.929688 -0.40625 -15.484375 C -0.0820312 -18.035156 0.675781 -20.316406 1.875 -22.328125 L 2.203125 -22.828125 C 3.671875 -24.785156 5.125 -26.914062 6.5625 -29.21875 C 8 -31.53125 9.476562 -33.703125 11 -35.734375 C 12.519531 -37.773438 14.09375 -39.460938 15.71875 -40.796875 C 17.351562 -42.128906 19.039062 -42.796875 20.78125 -42.796875 C 23.34375 -42.796875 25.234375 -42.195312 26.453125 -41 C 27.671875 -39.800781 28.253906 -38.550781 28.203125 -37.25 C 28.203125 -36.601562 27.914062 -36.0625 27.34375 -35.625 C 26.78125 -35.1875 26.101562 -34.789062 25.3125 -34.4375 C 24.519531 -34.082031 23.820312 -33.644531 23.21875 -33.125 C 22.625 -32.613281 22.328125 -31.953125 22.328125 -31.140625 C 22.328125 -30.648438 22.707031 -29.671875 23.46875 -28.203125 C 24.238281 -26.734375 25.054688 -25.085938 25.921875 -23.265625 C 26.785156 -21.453125 27.382812 -19.703125 27.71875 -18.015625 C 28.96875 -18.066406 30.039062 -18.5 30.9375 -19.3125 C 31.832031 -20.132812 32.6875 -21.140625 33.5 -22.328125 Z M 10.109375 -16.875 C 11.898438 -16.875 13.285156 -17.441406 14.265625 -18.578125 C 15.242188 -19.722656 15.734375 -21.140625 15.734375 -22.828125 C 15.734375 -23.804688 15.582031 -24.8125 15.28125 -25.84375 C 14.976562 -26.875 14.53125 -27.929688 13.9375 -29.015625 C 13.394531 -30.109375 12.742188 -30.109375 11.984375 -29.015625 C 10.953125 -27.492188 9.847656 -25.957031 8.671875 -24.40625 C 7.503906 -22.863281 6.460938 -21.492188 5.546875 -20.296875 C 5.546875 -19.316406 5.960938 -18.5 6.796875 -17.84375 C 7.640625 -17.195312 8.742188 -16.875 10.109375 -16.875 Z M 10.109375 -16.875 "/></g></g></g><g fill="#201e1d" fill-opacity="1"><g transform="translate(201.698306, 103.231508)"><g><path d="M 40.671875 -22.328125 C 41.003906 -22.816406 41.519531 -22.992188 42.21875 -22.859375 C 42.925781 -22.722656 43.535156 -22.425781 44.046875 -21.96875 C 44.566406 -21.507812 44.664062 -20.953125 44.34375 -20.296875 C 43.582031 -18.671875 42.585938 -16.988281 41.359375 -15.25 C 40.140625 -13.507812 38.617188 -12.050781 36.796875 -10.875 C 34.984375 -9.707031 32.742188 -9.125 30.078125 -9.125 L 29.09375 -9.125 C 27.082031 -6.351562 24.675781 -4.140625 21.875 -2.484375 C 19.082031 -0.828125 16.164062 0 13.125 0 C 9.476562 0 6.457031 -1.222656 4.0625 -3.671875 C 1.675781 -6.117188 0.484375 -9.457031 0.484375 -13.6875 C 0.484375 -16.738281 1.039062 -19.851562 2.15625 -23.03125 C 3.269531 -26.207031 4.832031 -29.140625 6.84375 -31.828125 C 8.851562 -34.515625 11.21875 -36.671875 13.9375 -38.296875 C 16.65625 -39.929688 19.644531 -40.75 22.90625 -40.75 C 25.132812 -40.75 27.144531 -40.300781 28.9375 -39.40625 C 30.726562 -38.507812 32.15625 -37.03125 33.21875 -34.96875 C 34.28125 -32.90625 34.8125 -30.160156 34.8125 -26.734375 C 34.8125 -23.859375 34.398438 -21.0625 33.578125 -18.34375 L 34.15625 -18.34375 C 35.351562 -18.34375 36.492188 -18.65625 37.578125 -19.28125 C 38.660156 -19.90625 39.691406 -20.921875 40.671875 -22.328125 Z M 17.765625 -16.875 C 19.128906 -16.875 20.328125 -17.28125 21.359375 -18.09375 C 22.390625 -18.90625 23.203125 -19.894531 23.796875 -21.0625 C 24.398438 -22.238281 24.703125 -23.394531 24.703125 -24.53125 C 24.703125 -25.726562 24.347656 -26.75 23.640625 -27.59375 C 22.929688 -28.4375 21.789062 -28.859375 20.21875 -28.859375 C 18.914062 -28.859375 17.757812 -28.476562 16.75 -27.71875 C 15.75 -26.957031 14.960938 -25.988281 14.390625 -24.8125 C 13.816406 -23.644531 13.53125 -22.46875 13.53125 -21.28125 C 13.53125 -20.082031 13.851562 -19.046875 14.5 -18.171875 C 15.15625 -17.304688 16.242188 -16.875 17.765625 -16.875 Z M 17.765625 -16.875 "/></g></g></g><g fill="#201e1d" fill-opacity="1"><g transform="translate(240.494104, 103.231508)"><g><path d="M 5.140625 0 C 3.234375 0 1.765625 -0.566406 0.734375 -1.703125 C -0.296875 -2.847656 -0.8125 -4.265625 -0.8125 -5.953125 C -0.8125 -7.847656 -0.59375 -10.222656 -0.15625 -13.078125 C 0.269531 -15.929688 0.945312 -19.015625 1.875 -22.328125 C 2.800781 -25.535156 3.820312 -28.539062 4.9375 -31.34375 C 6.050781 -34.144531 7.191406 -36.410156 8.359375 -38.140625 C 9.523438 -39.878906 10.625 -40.75 11.65625 -40.75 C 12.738281 -40.75 13.457031 -40.4375 13.8125 -39.8125 C 14.164062 -39.195312 14.34375 -38.476562 14.34375 -37.65625 C 14.34375 -36.082031 14.722656 -35.101562 15.484375 -34.71875 C 16.242188 -34.34375 17.273438 -34.804688 18.578125 -36.109375 C 20.109375 -37.578125 21.6875 -38.71875 23.3125 -39.53125 C 24.945312 -40.34375 26.660156 -40.75 28.453125 -40.75 C 30.953125 -40.75 32.796875 -40.015625 33.984375 -38.546875 C 35.179688 -37.085938 35.78125 -35.328125 35.78125 -33.265625 C 35.78125 -31.847656 35.5625 -30.554688 35.125 -29.390625 C 34.695312 -28.222656 34.265625 -27.082031 33.828125 -25.96875 C 33.390625 -24.851562 33.171875 -23.613281 33.171875 -22.25 C 33.171875 -19.53125 34.476562 -18.171875 37.09375 -18.171875 C 38.34375 -18.171875 39.382812 -18.566406 40.21875 -19.359375 C 41.0625 -20.148438 41.894531 -21.140625 42.71875 -22.328125 C 43.144531 -22.984375 43.710938 -23.21875 44.421875 -23.03125 C 45.128906 -22.84375 45.710938 -22.472656 46.171875 -21.921875 C 46.640625 -21.378906 46.707031 -20.835938 46.375 -20.296875 C 45.832031 -19.429688 45.179688 -18.164062 44.421875 -16.5 C 43.660156 -14.84375 42.75 -13.078125 41.6875 -11.203125 C 40.632812 -9.328125 39.398438 -7.535156 37.984375 -5.828125 C 36.566406 -4.117188 34.972656 -2.71875 33.203125 -1.625 C 31.441406 -0.539062 29.445312 0 27.21875 0 C 24.664062 0 22.875 -0.835938 21.84375 -2.515625 C 20.8125 -4.203125 20.296875 -6.191406 20.296875 -8.484375 C 20.296875 -10.546875 20.582031 -12.515625 21.15625 -14.390625 C 21.726562 -16.265625 22.296875 -17.972656 22.859375 -19.515625 C 23.429688 -21.066406 23.71875 -22.382812 23.71875 -23.46875 C 23.71875 -24.394531 23.429688 -25.101562 22.859375 -25.59375 C 22.296875 -26.082031 21.550781 -26.328125 20.625 -26.328125 C 19.050781 -26.328125 17.597656 -25.660156 16.265625 -24.328125 C 14.929688 -22.992188 13.851562 -21.269531 13.03125 -19.15625 C 12.21875 -17.039062 11.8125 -14.757812 11.8125 -12.3125 L 11.8125 -8.640625 C 11.8125 -7.285156 11.648438 -5.941406 11.328125 -4.609375 C 11.003906 -3.273438 10.363281 -2.171875 9.40625 -1.296875 C 8.457031 -0.429688 7.035156 0 5.140625 0 Z M 5.140625 0 "/></g></g></g><g fill="#201e1d" fill-opacity="1"><g transform="translate(39.42427, 152.229135)"><g><path d="M 52.828125 -30.078125 C 52.390625 -29.859375 52.140625 -29.546875 52.078125 -29.140625 C 52.023438 -28.734375 52.109375 -28.421875 52.328125 -28.203125 C 53.472656 -27.335938 54.273438 -26.265625 54.734375 -24.984375 C 55.203125 -23.703125 55.609375 -22.453125 55.953125 -21.234375 C 56.304688 -20.015625 56.835938 -18.984375 57.546875 -18.140625 C 58.253906 -17.296875 59.394531 -16.875 60.96875 -16.875 C 62.757812 -16.875 64.238281 -17.375 65.40625 -18.375 C 66.582031 -19.382812 67.710938 -20.703125 68.796875 -22.328125 C 69.234375 -22.984375 69.789062 -23.226562 70.46875 -23.0625 C 71.144531 -22.90625 71.703125 -22.539062 72.140625 -21.96875 C 72.578125 -21.394531 72.6875 -20.835938 72.46875 -20.296875 C 71.488281 -17.847656 70.304688 -15.425781 68.921875 -13.03125 C 67.535156 -10.644531 65.972656 -8.457031 64.234375 -6.46875 C 62.492188 -4.488281 60.59375 -2.914062 58.53125 -1.75 C 56.46875 -0.582031 54.289062 0 52 0 C 49.5625 0 47.726562 -0.597656 46.5 -1.796875 C 45.28125 -2.992188 44.4375 -4.53125 43.96875 -6.40625 C 43.507812 -8.28125 43.28125 -10.257812 43.28125 -12.34375 C 43.28125 -14.4375 43.332031 -16.421875 43.4375 -18.296875 C 43.550781 -20.171875 43.515625 -21.707031 43.328125 -22.90625 C 43.140625 -24.101562 42.632812 -24.703125 41.8125 -24.703125 C 41.269531 -24.703125 40.796875 -24.523438 40.390625 -24.171875 C 39.984375 -23.816406 39.535156 -22.929688 39.046875 -21.515625 C 36.054688 -12.660156 32.46875 -6.289062 28.28125 -2.40625 C 24.101562 1.476562 19 3.421875 12.96875 3.421875 C 9.21875 3.421875 6.078125 2.753906 3.546875 1.421875 C 1.015625 0.0859375 -0.882812 -1.71875 -2.15625 -4 C -3.4375 -6.28125 -4.078125 -8.804688 -4.078125 -11.578125 C -4.078125 -13.742188 -3.65625 -15.789062 -2.8125 -17.71875 C -1.96875 -19.65625 -0.800781 -21.25 0.6875 -22.5 C 2.1875 -23.75 3.941406 -24.375 5.953125 -24.375 C 6.765625 -24.375 7.171875 -24.046875 7.171875 -23.390625 C 7.171875 -21.378906 8.023438 -19.734375 9.734375 -18.453125 C 11.453125 -17.179688 13.5625 -16.546875 16.0625 -16.546875 C 17.851562 -16.546875 19.738281 -17.019531 21.71875 -17.96875 C 23.707031 -18.925781 25.625 -20.4375 27.46875 -22.5 C 29.320312 -24.5625 30.867188 -27.222656 32.109375 -30.484375 C 33.203125 -33.253906 34.359375 -36.117188 35.578125 -39.078125 C 36.804688 -42.046875 37.960938 -44.890625 39.046875 -47.609375 C 36.003906 -48.421875 33.394531 -48.363281 31.21875 -47.4375 C 29.039062 -46.519531 27.394531 -45.160156 26.28125 -43.359375 C 25.175781 -41.566406 24.625 -39.691406 24.625 -37.734375 C 24.625 -36.546875 24.921875 -35.554688 25.515625 -34.765625 C 26.109375 -33.972656 26.84375 -33.578125 27.71875 -33.578125 C 28.09375 -32.710938 28.117188 -31.664062 27.796875 -30.4375 C 27.472656 -29.21875 26.832031 -28.050781 25.875 -26.9375 C 24.925781 -25.820312 23.703125 -24.882812 22.203125 -24.125 C 20.710938 -23.363281 18.988281 -22.984375 17.03125 -22.984375 C 14.800781 -22.984375 12.925781 -23.484375 11.40625 -24.484375 C 9.882812 -25.492188 8.742188 -26.800781 7.984375 -28.40625 C 7.222656 -30.007812 6.84375 -31.734375 6.84375 -33.578125 C 6.84375 -37.273438 7.550781 -40.738281 8.96875 -43.96875 C 10.382812 -47.207031 12.378906 -50.085938 14.953125 -52.609375 C 17.535156 -55.140625 20.632812 -57.109375 24.25 -58.515625 C 27.863281 -59.929688 31.875 -60.640625 36.28125 -60.640625 C 40.351562 -60.640625 43.394531 -60.054688 45.40625 -58.890625 C 47.414062 -57.722656 48.554688 -56.078125 48.828125 -53.953125 C 49.097656 -51.835938 48.691406 -49.3125 47.609375 -46.375 C 47.273438 -45.34375 46.847656 -44.078125 46.328125 -42.578125 C 45.816406 -41.085938 45.265625 -39.503906 44.671875 -37.828125 C 44.671875 -37.765625 44.65625 -37.71875 44.625 -37.6875 C 44.601562 -37.664062 44.59375 -37.628906 44.59375 -37.578125 C 44.207031 -36.429688 44.164062 -35.585938 44.46875 -35.046875 C 44.769531 -34.503906 45.191406 -34.234375 45.734375 -34.234375 C 47.085938 -34.179688 48.46875 -35.296875 49.875 -37.578125 C 51.289062 -39.859375 52.789062 -42.875 54.375 -46.625 C 55.40625 -48.957031 56.503906 -51.179688 57.671875 -53.296875 C 58.835938 -55.421875 60.265625 -57.175781 61.953125 -58.5625 C 63.640625 -59.945312 65.757812 -60.640625 68.3125 -60.640625 C 70.375 -60.640625 72.015625 -60.207031 73.234375 -59.34375 C 74.460938 -58.476562 75.347656 -57.363281 75.890625 -56 C 76.429688 -54.644531 76.703125 -53.234375 76.703125 -51.765625 C 76.703125 -49.859375 76.332031 -48.0625 75.59375 -46.375 C 74.863281 -44.695312 73.925781 -43.335938 72.78125 -42.296875 C 71.644531 -41.265625 70.453125 -40.75 69.203125 -40.75 C 68.222656 -40.75 67.503906 -40.976562 67.046875 -41.4375 C 66.585938 -41.90625 65.84375 -42.140625 64.8125 -42.140625 C 63.5 -42.140625 62.335938 -41.648438 61.328125 -40.671875 C 60.328125 -39.691406 59.40625 -38.507812 58.5625 -37.125 C 57.726562 -35.738281 56.847656 -34.378906 55.921875 -33.046875 C 54.992188 -31.722656 53.960938 -30.734375 52.828125 -30.078125 Z M 52.828125 -30.078125 "/></g></g></g><g fill="#201e1d" fill-opacity="1"><g transform="translate(106.338877, 152.229135)"><g><path d="M 40.671875 -22.328125 C 41.003906 -22.816406 41.519531 -22.992188 42.21875 -22.859375 C 42.925781 -22.722656 43.535156 -22.425781 44.046875 -21.96875 C 44.566406 -21.507812 44.664062 -20.953125 44.34375 -20.296875 C 43.582031 -18.671875 42.585938 -16.988281 41.359375 -15.25 C 40.140625 -13.507812 38.617188 -12.050781 36.796875 -10.875 C 34.984375 -9.707031 32.742188 -9.125 30.078125 -9.125 L 29.09375 -9.125 C 27.082031 -6.351562 24.675781 -4.140625 21.875 -2.484375 C 19.082031 -0.828125 16.164062 0 13.125 0 C 9.476562 0 6.457031 -1.222656 4.0625 -3.671875 C 1.675781 -6.117188 0.484375 -9.457031 0.484375 -13.6875 C 0.484375 -16.738281 1.039062 -19.851562 2.15625 -23.03125 C 3.269531 -26.207031 4.832031 -29.140625 6.84375 -31.828125 C 8.851562 -34.515625 11.21875 -36.671875 13.9375 -38.296875 C 16.65625 -39.929688 19.644531 -40.75 22.90625 -40.75 C 25.132812 -40.75 27.144531 -40.300781 28.9375 -39.40625 C 30.726562 -38.507812 32.15625 -37.03125 33.21875 -34.96875 C 34.28125 -32.90625 34.8125 -30.160156 34.8125 -26.734375 C 34.8125 -23.859375 34.398438 -21.0625 33.578125 -18.34375 L 34.15625 -18.34375 C 35.351562 -18.34375 36.492188 -18.65625 37.578125 -19.28125 C 38.660156 -19.90625 39.691406 -20.921875 40.671875 -22.328125 Z M 17.765625 -16.875 C 19.128906 -16.875 20.328125 -17.28125 21.359375 -18.09375 C 22.390625 -18.90625 23.203125 -19.894531 23.796875 -21.0625 C 24.398438 -22.238281 24.703125 -23.394531 24.703125 -24.53125 C 24.703125 -25.726562 24.347656 -26.75 23.640625 -27.59375 C 22.929688 -28.4375 21.789062 -28.859375 20.21875 -28.859375 C 18.914062 -28.859375 17.757812 -28.476562 16.75 -27.71875 C 15.75 -26.957031 14.960938 -25.988281 14.390625 -24.8125 C 13.816406 -23.644531 13.53125 -22.46875 13.53125 -21.28125 C 13.53125 -20.082031 13.851562 -19.046875 14.5 -18.171875 C 15.15625 -17.304688 16.242188 -16.875 17.765625 -16.875 Z M 17.765625 -16.875 "/></g></g></g><g fill="#201e1d" fill-opacity="1"><g transform="translate(145.134676, 152.229135)"><g><path d="M 5.546875 0 C 3.203125 0 1.554688 -0.800781 0.609375 -2.40625 C -0.335938 -4.007812 -0.8125 -6.003906 -0.8125 -8.390625 C -0.8125 -10.460938 -0.550781 -12.71875 -0.03125 -15.15625 C 0.476562 -17.601562 1.140625 -19.992188 1.953125 -22.328125 C 4.722656 -30.265625 7.070312 -36.921875 9 -42.296875 C 10.9375 -47.679688 12.800781 -51.742188 14.59375 -54.484375 C 16.382812 -57.234375 18.367188 -58.609375 20.546875 -58.609375 C 22.222656 -58.609375 23.265625 -57.984375 23.671875 -56.734375 C 24.085938 -55.484375 23.695312 -53.554688 22.5 -50.953125 C 21.46875 -48.609375 20.335938 -46.335938 19.109375 -44.140625 C 17.890625 -41.941406 17.035156 -39.890625 16.546875 -37.984375 C 16.109375 -36.296875 16.144531 -35.34375 16.65625 -35.125 C 17.175781 -34.914062 17.875 -35.242188 18.75 -36.109375 C 20.269531 -37.578125 21.84375 -38.71875 23.46875 -39.53125 C 25.101562 -40.34375 26.816406 -40.75 28.609375 -40.75 C 31.109375 -40.75 32.957031 -40.015625 34.15625 -38.546875 C 35.351562 -37.085938 35.953125 -35.328125 35.953125 -33.265625 C 35.953125 -31.847656 35.734375 -30.554688 35.296875 -29.390625 C 34.859375 -28.222656 34.421875 -27.082031 33.984375 -25.96875 C 33.554688 -24.851562 33.34375 -23.613281 33.34375 -22.25 C 33.34375 -19.53125 34.59375 -18.171875 37.09375 -18.171875 C 38.34375 -18.171875 39.382812 -18.566406 40.21875 -19.359375 C 41.0625 -20.148438 41.894531 -21.140625 42.71875 -22.328125 C 43.144531 -22.984375 43.710938 -23.21875 44.421875 -23.03125 C 45.128906 -22.84375 45.710938 -22.472656 46.171875 -21.921875 C 46.640625 -21.378906 46.707031 -20.835938 46.375 -20.296875 C 45.832031 -19.429688 45.179688 -18.164062 44.421875 -16.5 C 43.660156 -14.84375 42.75 -13.078125 41.6875 -11.203125 C 40.632812 -9.328125 39.398438 -7.535156 37.984375 -5.828125 C 36.566406 -4.117188 34.972656 -2.71875 33.203125 -1.625 C 31.441406 -0.539062 29.445312 0 27.21875 0 C 24.5625 0 22.703125 -0.835938 21.640625 -2.515625 C 20.578125 -4.203125 20.046875 -6.191406 20.046875 -8.484375 C 20.046875 -10.546875 20.375 -12.515625 21.03125 -14.390625 C 21.6875 -16.265625 22.328125 -17.972656 22.953125 -19.515625 C 23.578125 -21.066406 23.890625 -22.382812 23.890625 -23.46875 C 23.890625 -24.394531 23.601562 -25.101562 23.03125 -25.59375 C 22.457031 -26.082031 21.707031 -26.328125 20.78125 -26.328125 C 19.207031 -26.328125 17.753906 -25.660156 16.421875 -24.328125 C 15.085938 -22.992188 14.015625 -21.269531 13.203125 -19.15625 C 12.390625 -17.039062 11.984375 -14.757812 11.984375 -12.3125 L 11.984375 -8.640625 C 11.984375 -7.285156 11.816406 -5.941406 11.484375 -4.609375 C 11.160156 -3.273438 10.535156 -2.171875 9.609375 -1.296875 C 8.691406 -0.429688 7.335938 0 5.546875 0 Z M 5.546875 0 "/></g></g></g><g clip-path="url(#e84cf2b9f6)"><path stroke-linecap="butt" transform="matrix(0.80324, 0, 0, 0.80324, 34.935341, 58.403903)" fill="none" stroke-linejoin="miter" d="M 88.992887 21.201254 C 89.537556 20.393976 90.247571 20.102189 91.122933 20.335619 C 91.998294 20.564185 92.727762 21.021318 93.306473 21.697292 C 93.880321 22.373265 93.97272 23.054102 93.578807 23.730075 C 92.897971 24.819414 92.080967 26.395064 91.122933 28.461889 C 90.184351 30.509262 89.051244 32.707391 87.728476 35.051414 C 86.410571 37.380848 84.8641 39.608156 83.098788 41.743065 C 81.348065 43.873111 79.373639 45.614107 77.17551 46.966054 C 74.97738 48.322864 72.492327 48.998837 69.72035 48.998837 C 67.356874 48.998837 65.440806 48.322864 63.972144 46.966054 C 62.518072 45.614107 61.467638 43.790438 60.825707 41.495046 C 60.198364 39.194791 59.882262 36.661106 59.882262 33.889129 C 59.882262 32.600403 59.950345 31.243593 60.081649 29.823562 C 60.212954 28.403532 60.412341 26.915417 60.67495 25.364083 C 58.510862 25.213326 56.395406 25.009075 54.333444 24.746467 C 52.266619 24.478995 50.263014 24.109398 48.312903 23.62795 C 47.700151 24.722151 47.087398 25.826079 46.479508 26.949459 C 45.866755 28.05825 45.254002 29.147589 44.646112 30.222338 C 42.350721 34.214958 39.690595 37.974148 36.665735 41.495046 C 33.660328 45.01108 30.45067 47.851141 27.031898 50.015229 C 23.627716 52.179316 20.101955 53.263792 16.449753 53.263792 C 11.84438 53.263792 8.099779 52.427335 5.225676 50.759286 C 2.351574 49.105826 0.25557 46.966054 -1.067198 44.33997 C -2.385103 41.699297 -3.046488 38.99054 -3.046488 36.213699 C -3.046488 33.441722 -2.487229 30.791323 -1.363849 28.262501 C -0.255058 25.71909 1.310866 23.657128 3.34365 22.066889 C 5.376433 20.466923 7.744772 19.664508 10.453529 19.664508 C 11.465057 19.664508 11.965958 20.07301 11.965958 20.880288 C 11.965958 23.127048 12.933719 24.940992 14.864377 26.331843 C 16.799898 27.717832 19.153647 28.413258 21.925624 28.413258 C 25.096377 28.413258 28.019111 27.635159 30.698689 26.083824 C 33.373404 24.513037 35.858458 22.407307 38.15385 19.766634 C 32.950313 17.14055 28.821526 13.726641 25.767488 9.534633 C 22.728039 5.337762 21.205883 0.703211 21.205883 -4.364159 C 21.205883 -7.967729 21.969392 -10.982862 23.486685 -13.409558 C 25.008841 -15.836254 27.012446 -17.693965 29.507226 -18.982692 C 32.016594 -20.271418 34.701036 -20.918213 37.560549 -20.918213 C 41.407276 -20.918213 44.223021 -19.91641 46.007785 -17.917669 C 47.807139 -15.918927 48.706816 -13.74025 48.706816 -11.376775 C 48.7749 -10.632718 48.599827 -10.024828 48.186462 -9.543379 C 47.79255 -9.081383 47.223565 -8.881995 46.479508 -8.950079 C 45.190782 -9.081383 43.887466 -8.906311 42.564698 -8.429725 C 41.24193 -7.967729 40.142865 -7.072915 39.267504 -5.75501 C 38.392142 -4.432242 37.954462 -2.516174 37.954462 -0.0068047 C 37.954462 5.196732 39.846215 9.393603 43.629721 12.578945 C 44.106306 11.820299 44.563439 11.051926 44.991394 10.273827 C 45.438801 9.500591 45.900797 8.707903 46.377382 7.895762 C 51.517698 -1.368478 56.414858 -8.551303 61.073726 -13.657577 C 65.747182 -18.778441 70.182346 -22.328517 74.374354 -24.312669 C 78.571225 -26.306548 82.534666 -27.30835 86.269541 -27.30835 C 89.853659 -27.30835 92.484606 -26.34059 94.172108 -24.409932 C 95.854747 -22.493863 96.696066 -20.14984 96.696066 -17.373 C 96.632846 -14.119574 95.874199 -11.328144 94.420127 -8.99871 C 92.966054 -6.669277 91.156975 -5.506991 88.992887 -5.506991 C 88.316914 -5.506991 87.704161 -5.686927 87.159491 -6.051661 C 86.629412 -6.430984 85.997206 -6.586604 85.253149 -6.523383 C 84.227031 -6.523383 83.103651 -5.638296 81.883008 -3.872984 C 80.676955 -2.122261 79.431997 0.853967 78.14327 5.050838 C 77.530517 7.146842 76.937217 9.383876 76.358506 11.761941 C 75.779795 14.125417 75.492871 16.289504 75.492871 18.254204 C 75.492871 20.350208 75.877057 22.062026 76.655156 23.379931 C 77.447844 24.702699 78.785202 25.364083 80.667229 25.364083 C 82.238016 25.364083 83.784487 25.043117 85.30178 24.396322 C 86.819073 23.754391 88.049442 22.689368 88.992887 21.201254 Z M 62.211695 18.453592 C 63.563642 13.712052 64.828053 9.938272 66.000064 7.12739 C 67.191528 4.32137 68.159289 2.07461 68.898483 0.391971 C 69.64254 -1.295531 70.017 -2.812824 70.017 -4.169634 C 70.017 -5.127668 69.608498 -5.604254 68.80122 -5.604254 C 68.125247 -5.604254 67.415232 -5.351372 66.671175 -4.835881 C 65.927117 -4.325254 64.813463 -3.192147 63.325349 -1.441425 C 61.292566 1.199249 59.347319 4.083078 57.479881 7.2052 C 55.627033 10.307869 53.788775 13.52239 51.955379 16.8439 C 53.43863 17.305896 55.043459 17.660904 56.76014 17.908923 C 58.496273 18.137489 60.310216 18.317425 62.211695 18.453592 Z M 95.276036 48.998837 C 91.691918 48.998837 89.187412 48.001898 87.767381 46.003156 C 86.347351 44.004415 85.637335 41.519361 85.637335 38.543133 C 85.637335 35.970544 85.958301 33.159661 86.605096 30.120212 C 87.247028 27.080764 88.073758 24.109398 89.080423 21.201254 C 92.533237 11.324261 95.455971 3.04237 97.853488 -3.64928 C 100.265595 -10.35552 102.585302 -15.418026 104.81261 -18.836798 C 107.044782 -22.25557 109.515246 -23.962525 112.224002 -23.962525 C 114.320006 -23.962525 115.642775 -23.169837 116.187444 -21.58446 C 116.732113 -19.999083 116.221486 -17.611292 114.650698 -14.42595 C 111.89331 -8.809049 109.515246 -3.615238 107.516504 1.160344 C 105.517762 5.931063 103.937249 10.448899 102.78469 14.708991 C 102.240021 16.659101 101.850971 18.536265 101.617542 20.335619 C 101.388975 22.120383 101.612679 23.574455 102.288652 24.692972 C 102.964625 25.816353 104.321435 26.380474 106.349356 26.380474 C 108.100078 26.380474 109.636824 25.928204 110.959592 25.018801 C 112.28236 24.094809 113.478687 22.820672 114.553436 21.201254 C 115.098105 20.393976 115.808121 20.102189 116.683482 20.335619 C 117.573432 20.564185 118.3029 21.021318 118.862159 21.697292 C 119.44087 22.373265 119.533269 23.054102 119.134493 23.730075 C 118.45852 24.819414 117.641516 26.395064 116.683482 28.461889 C 115.740037 30.509262 114.60693 32.707391 113.289025 35.051414 C 111.966257 37.380848 110.424649 39.608156 108.654474 41.743065 C 106.903751 43.873111 104.929325 45.614107 102.731196 46.966054 C 100.537929 48.322864 98.052876 48.998837 95.276036 48.998837 Z M 120.846311 48.998837 C 117.262193 48.998837 114.757687 48.001898 113.337657 46.003156 C 111.917626 44.004415 111.207611 41.519361 111.207611 38.543133 C 111.207611 35.970544 111.528577 33.159661 112.175371 30.120212 C 112.817303 27.080764 113.644033 24.109398 114.650698 21.201254 C 118.103512 11.324261 121.026246 3.04237 123.423764 -3.64928 C 125.83587 -10.35552 128.155578 -15.418026 130.382886 -18.836798 C 132.615057 -22.25557 135.085521 -23.962525 137.794278 -23.962525 C 139.890282 -23.962525 141.21305 -23.169837 141.757719 -21.58446 C 142.302388 -19.999083 141.791761 -17.611292 140.220974 -14.42595 C 137.463586 -8.809049 135.085521 -3.615238 133.086779 1.160344 C 131.088038 5.931063 129.507524 10.448899 128.354965 14.708991 C 127.810296 16.659101 127.421247 18.536265 127.187817 20.335619 C 126.95925 22.120383 127.182954 23.574455 127.858927 24.692972 C 128.534901 25.816353 129.891711 26.380474 131.919631 26.380474 C 133.670354 26.380474 135.207099 25.928204 136.529867 25.018801 C 137.852635 24.094809 139.048962 22.820672 140.123711 21.201254 C 140.668381 20.393976 141.378396 20.102189 142.253757 20.335619 C 143.143708 20.564185 143.873175 21.021318 144.432434 21.697292 C 145.011145 22.373265 145.103544 23.054102 144.704769 23.730075 C 144.028795 24.819414 143.211791 26.395064 142.253757 28.461889 C 141.310312 30.509262 140.177206 32.707391 138.859301 35.051414 C 137.536533 37.380848 135.990061 39.608156 134.224749 41.743065 C 132.474027 43.873111 130.499601 45.614107 128.301471 46.966054 C 126.108205 48.322864 123.623151 48.998837 120.846311 48.998837 Z M 158.185332 -5.900904 C 155.758636 -5.900904 153.657769 -6.421258 151.892457 -7.461965 C 150.141735 -8.522125 149.266374 -10.404151 149.266374 -13.112908 C 149.266374 -16.697026 150.263313 -19.148038 152.262054 -20.470806 C 154.260796 -21.793574 156.638861 -22.450095 159.401112 -22.450095 C 161.973701 -22.450095 164.157241 -21.876247 165.937143 -20.718825 C 167.741359 -19.561403 168.509732 -17.397315 168.242261 -14.226562 C 167.965063 -11.10444 166.870861 -8.93549 164.974245 -7.709984 C 163.092218 -6.503931 160.826005 -5.900904 158.185332 -5.900904 Z M 146.93694 48.998837 C 143.55221 48.998837 141.149829 47.768468 139.724936 45.30773 C 138.304905 42.832403 137.59489 39.831859 137.59489 36.315825 C 137.59489 33.952349 137.82832 31.452707 138.290316 28.80717 C 138.766901 26.166497 139.379654 23.62795 140.123711 21.201254 C 142.501776 13.81904 144.806894 8.153508 147.034202 4.204656 C 149.266374 0.241214 151.8341 -1.738075 154.742245 -1.738075 C 157.037636 -1.738075 158.185332 -0.220782 158.185332 2.818667 C 158.185332 4.85145 157.796283 6.932865 157.018184 9.062911 C 156.244948 11.192956 155.486302 13.28896 154.742245 15.355786 C 153.998188 17.417748 153.623727 19.367858 153.623727 21.201254 C 153.623727 22.888756 154.046819 24.148303 154.888138 24.994486 C 155.734321 25.835805 156.828522 26.254033 158.185332 26.254033 C 159.756119 26.254033 161.059435 25.787174 162.100142 24.843729 C 163.14085 23.900284 164.171831 22.689368 165.197949 21.201254 C 165.742618 20.393976 166.433181 20.0876 167.279363 20.286987 C 168.120683 20.481512 168.830698 20.938645 169.409409 21.648661 C 169.98812 22.358676 170.099972 23.02006 169.75469 23.62795 C 169.078717 24.722151 168.286029 26.283212 167.376626 28.311132 C 166.467223 30.329326 165.368158 32.522593 164.079431 34.900658 C 162.790705 37.264133 161.31718 39.510894 159.644268 41.640939 C 157.995671 43.770985 156.118507 45.531434 154.022503 46.917423 C 151.926499 48.308274 149.563024 48.998837 146.93694 48.998837 Z M 204.453039 21.201254 C 204.997708 20.393976 205.693134 20.102189 206.534453 20.335619 C 207.395225 20.564185 208.10524 21.021318 208.664499 21.697292 C 209.24321 22.373265 209.364788 23.054102 209.034096 23.730075 C 208.489427 24.887497 207.691875 26.497189 206.631715 28.559151 C 205.591008 30.625977 204.277966 32.819243 202.69259 35.148677 C 201.107213 37.47811 199.176555 39.690829 196.895753 41.791696 C 194.634403 43.8877 192.032635 45.599517 189.090448 46.917423 C 186.153125 48.240191 182.782984 48.901575 178.984889 48.901575 C 174.525409 48.901575 170.989922 47.95813 168.378428 46.076103 C 165.786386 44.174624 164.011348 41.772243 163.053314 38.868962 C 162.109869 35.941365 161.84726 32.897053 162.260625 29.7263 C 162.654538 26.536094 163.597983 23.696033 165.086097 21.201254 L 165.504325 20.583638 C 167.323131 18.156942 169.122485 15.501679 170.907249 12.627576 C 172.706603 9.753473 174.559451 7.044717 176.456067 4.501306 C 178.357546 1.957895 180.31252 -0.138109 182.330714 -1.791569 C 184.358634 -3.440166 186.459501 -4.266896 188.623589 -4.266896 C 191.808931 -4.266896 194.16268 -3.522839 195.684836 -2.039588 C 197.202129 -0.551474 197.926734 0.999861 197.863513 2.619279 C 197.863513 3.43142 197.508506 4.107393 196.798491 4.652063 C 196.088475 5.196732 195.23743 5.69277 194.245353 6.140177 C 193.27273 6.568131 192.411958 7.103074 191.667901 7.749869 C 190.923844 8.3918 190.554247 9.21853 190.554247 10.225196 C 190.554247 10.837949 191.025969 12.058591 191.964551 13.891987 C 192.922585 15.710793 193.938977 17.758166 195.013726 20.038968 C 196.103065 22.300318 196.856848 24.478995 197.270213 26.579862 C 198.821548 26.511779 200.149179 25.976836 201.25797 24.97017 C 202.38135 23.944052 203.446373 22.689368 204.453039 21.201254 Z M 175.342413 27.990167 C 177.569721 27.990167 179.296128 27.280151 180.521634 25.860121 C 181.742277 24.44009 182.35503 22.679642 182.35503 20.583638 C 182.35503 19.358132 182.165368 18.113174 181.781182 16.8439 C 181.401858 15.555173 180.8426 14.232405 180.098543 12.875595 C 179.422569 11.523648 178.610429 11.523648 177.671847 12.875595 C 176.38312 14.777075 175.011721 16.693143 173.557649 18.623801 C 172.103576 20.53987 170.809987 22.241961 169.667154 23.730075 C 169.667154 24.950718 170.187508 25.967109 171.228215 26.774387 C 172.288375 27.586528 173.654911 27.990167 175.342413 27.990167 Z M 252.665992 21.201254 C 253.059905 20.588501 253.696973 20.36966 254.572334 20.535006 C 255.467148 20.700352 256.230658 21.069949 256.877452 21.648661 C 257.519384 22.227372 257.636099 22.917934 257.222734 23.730075 C 256.284152 25.762858 255.053783 27.858862 253.531627 30.02295 C 252.014334 32.187038 250.112855 33.996118 247.832053 35.45019 C 245.570703 36.899399 242.779273 37.628867 239.457763 37.628867 L 238.246847 37.628867 C 235.752067 41.081681 232.761249 43.839069 229.279257 45.901031 C 225.792401 47.967856 222.149926 48.998837 218.35183 48.998837 C 213.824267 48.998837 210.074803 47.481544 207.103438 44.442095 C 204.132073 41.388057 202.643959 37.225228 202.643959 31.953608 C 202.643959 28.155513 203.339384 24.284471 204.725373 20.335619 C 206.111362 16.372177 208.051746 12.719976 210.546526 9.383876 C 213.055895 6.033188 215.998081 3.339021 219.368222 1.306237 C 222.752952 -0.726546 226.478101 -1.738075 230.538804 -1.738075 C 233.315645 -1.738075 235.820151 -1.178816 238.047459 -0.0554359 C 240.27963 1.053355 242.054668 2.891614 243.372573 5.469066 C 244.695341 8.03193 245.356725 11.450702 245.356725 15.725383 C 245.356725 19.309501 244.850961 22.78663 243.844296 26.156771 L 244.539722 26.156771 C 246.027836 26.156771 247.447866 25.767722 248.799813 24.994486 C 250.156623 24.216387 251.445349 22.951976 252.665992 21.201254 Z M 224.148667 27.990167 C 225.831306 27.990167 227.31942 27.484402 228.608146 26.477737 C 229.896873 25.456482 230.913264 24.216387 231.657322 22.762315 C 232.401379 21.308242 232.770976 19.873622 232.770976 18.453592 C 232.770976 16.965478 232.333295 15.701067 231.457934 14.66036 C 230.582572 13.605063 229.162542 13.074983 227.197842 13.074983 C 225.578424 13.074983 224.138941 13.556432 222.884256 14.514466 C 221.629572 15.453048 220.647222 16.649375 219.937207 18.103447 C 219.227192 19.55752 218.872184 21.026181 218.872184 22.514296 C 218.872184 24.00241 219.275823 25.291136 220.087963 26.380474 C 220.895241 27.455224 222.247188 27.990167 224.148667 27.990167 Z M 256.716969 48.998837 C 254.353494 48.998837 252.529825 48.288822 251.241098 46.868791 C 249.952372 45.448761 249.305577 43.688312 249.305577 41.592308 C 249.305577 39.228833 249.577912 36.272057 250.127444 32.721981 C 250.672114 29.171904 251.513433 25.330041 252.651403 21.201254 C 253.808825 17.20377 255.078099 13.464033 256.46895 9.977177 C 257.854939 6.495184 259.27497 3.669713 260.729042 1.505625 C 262.183114 -0.658463 263.554514 -1.738075 264.84324 -1.738075 C 266.195187 -1.738075 267.090001 -1.353888 267.517955 -0.57579 C 267.965362 0.202309 268.184202 1.101986 268.184202 2.123241 C 268.184202 4.073351 268.655925 5.289131 269.59937 5.765717 C 270.557404 6.247165 271.84613 5.668454 273.465548 4.034446 C 275.362165 2.21564 277.322001 0.805336 279.335332 -0.206193 C 281.368115 -1.227447 283.507887 -1.738075 285.754648 -1.738075 C 288.857317 -1.738075 291.152709 -0.823809 292.640823 1.009587 C 294.124074 2.828393 294.868132 5.021659 294.868132 7.599112 C 294.868132 9.349835 294.595797 10.954664 294.051128 12.408736 C 293.525911 13.857945 292.986105 15.282839 292.441436 16.668828 C 291.896766 18.054816 291.624432 19.601288 291.624432 21.303379 C 291.624432 24.688109 293.248713 26.380474 296.507002 26.380474 C 298.058337 26.380474 299.351926 25.894163 300.392634 24.916676 C 301.452794 23.929463 302.483775 22.689368 303.49044 21.201254 C 304.035109 20.393976 304.745125 20.102189 305.620486 20.335619 C 306.5153 20.564185 307.239904 21.021318 307.804026 21.697292 C 308.382737 22.373265 308.470273 23.054102 308.07636 23.730075 C 307.395524 24.819414 306.57852 26.395064 305.620486 28.461889 C 304.681904 30.509262 303.548797 32.707391 302.226029 35.051414 C 300.908124 37.380848 299.361653 39.608156 297.596341 41.743065 C 295.845618 43.873111 293.871192 45.614107 291.673063 46.966054 C 289.474933 48.322864 286.98988 48.998837 284.217903 48.998837 C 281.04715 48.998837 278.814978 47.953267 277.526252 45.8524 C 276.237526 43.756396 275.595594 41.285932 275.595594 38.445871 C 275.595594 35.868418 275.950602 33.417406 276.660617 31.087973 C 277.370632 28.758539 278.080648 26.628494 278.790663 24.692972 C 279.500678 22.762315 279.855686 21.118581 279.855686 19.766634 C 279.855686 18.623801 279.500678 17.74844 278.790663 17.14055 C 278.080648 16.527797 277.146929 16.221421 275.989507 16.221421 C 274.04426 16.221421 272.23518 17.057877 270.56713 18.725926 C 268.91367 20.374524 267.576312 22.524022 266.550194 25.164695 C 265.543529 27.790779 265.037765 30.63084 265.037765 33.689741 L 265.037765 38.246483 C 265.037765 39.933985 264.833514 41.606897 264.420149 43.274947 C 264.026236 44.928407 263.233548 46.299807 262.042084 47.389145 C 260.855483 48.463894 259.075582 48.998837 256.716969 48.998837 Z M 256.716969 48.998837 " stroke="#201e1d" stroke-width="7.611" stroke-opacity="1" stroke-miterlimit="4"/></g><g clip-path="url(#27b9faf3d7)"><path stroke-linecap="butt" transform="matrix(0.80324, 0, 0, 0.80324, 34.935341, 58.403903)" fill="none" stroke-linejoin="miter" d="M 65.752045 72.565508 C 65.207376 72.828116 64.901 73.217166 64.837779 73.727793 C 64.769695 74.223831 64.876684 74.61288 65.158745 74.894941 C 66.578775 75.964827 67.570851 77.307048 68.13011 78.907014 C 68.708821 80.49239 69.224312 82.043725 69.666855 83.565881 C 70.114262 85.083174 70.775646 86.3719 71.651008 87.427197 C 72.526369 88.467904 73.946399 88.988258 75.911099 88.988258 C 78.14327 88.988258 79.981529 88.370642 81.435601 87.130547 C 82.889674 85.875862 84.295115 84.232128 85.647062 82.204208 C 86.191731 81.392067 86.887157 81.085691 87.728476 81.285079 C 88.569796 81.484466 89.265222 81.936736 89.809891 82.646752 C 90.35456 83.356767 90.485864 84.052193 90.208666 84.728166 C 89.002613 87.767615 87.529088 90.782748 85.797818 93.773566 C 84.081138 96.744931 82.140753 99.468277 79.976666 101.948468 C 77.812578 104.409206 75.439377 106.364179 72.866787 107.818251 C 70.289334 109.272324 67.580578 110.001791 64.740517 110.001791 C 61.701068 110.001791 59.420265 109.257734 57.898109 107.76962 C 56.380817 106.281506 55.330383 104.375164 54.751672 102.04573 C 54.177824 99.701707 53.886037 97.231243 53.886037 94.639201 C 53.886037 92.027707 53.954121 89.562106 54.085425 87.232672 C 54.216729 84.883786 54.168098 82.967717 53.934668 81.484466 C 53.706102 79.996352 53.078759 79.252295 52.052641 79.252295 C 51.376668 79.252295 50.783367 79.475999 50.267877 79.923406 C 49.771839 80.35136 49.222307 81.450425 48.609554 83.215737 C 44.894131 94.235562 40.424926 102.162445 35.2068 107.001247 C 30.003264 111.84005 23.642305 114.261883 16.128787 114.261883 C 11.46992 114.261883 7.564836 113.425427 4.408673 111.757377 C 1.271961 110.10878 -1.091514 107.862019 -2.676891 105.021958 C -4.276856 102.177034 -5.079271 99.030597 -5.079271 95.582646 C -5.079271 92.888479 -4.549191 90.345068 -3.493894 87.947551 C -2.453187 85.540307 -1.008841 83.556155 0.844007 82.00482 C 2.706581 80.434033 4.894984 79.651071 7.409217 79.651071 C 8.415882 79.651071 8.916783 80.05471 8.916783 80.861987 C 8.916783 83.376219 9.986669 85.433318 12.116715 87.033284 C 14.246761 88.618661 16.872845 89.411349 19.994966 89.411349 C 22.222274 89.411349 24.571161 88.818049 27.031898 87.626585 C 29.507226 86.439984 31.895017 84.56282 34.190408 82.00482 C 36.500389 79.427367 38.43591 76.105858 39.987245 72.045154 C 41.344055 68.59234 42.778675 65.022811 44.300831 61.341431 C 45.818124 57.660051 47.252744 54.124564 48.609554 50.73497 C 44.826048 49.728305 41.582348 49.806115 38.873591 50.958674 C 36.164834 52.101506 34.117462 53.784145 32.72661 56.016317 C 31.340621 58.243625 30.645195 60.582785 30.645195 63.02407 C 30.645195 64.512184 31.019655 65.742553 31.763712 66.715177 C 32.502906 67.692663 33.422036 68.178975 34.511374 68.178975 C 34.97337 69.268314 34.997686 70.576492 34.584321 72.093785 C 34.190408 73.611078 33.39772 75.06515 32.206256 76.456002 C 31.034245 77.841991 29.516952 79.014002 27.649514 79.972037 C 25.801529 80.915482 23.652031 81.382341 21.205883 81.382341 C 18.433905 81.382341 16.094746 80.754999 14.19813 79.500314 C 12.31124 78.24563 10.891209 76.626211 9.933175 74.646922 C 8.994593 72.648181 8.522871 70.493819 8.522871 68.178975 C 8.522871 63.588192 9.398232 59.284332 11.148954 55.27226 C 12.914266 51.240735 15.404183 47.656616 18.604115 44.519905 C 21.828362 41.363742 25.684815 38.91273 30.178336 37.162007 C 34.686446 35.391832 39.680869 34.511608 45.166466 34.511608 C 50.233835 34.511608 54.017341 35.236213 56.512121 36.690285 C 59.02149 38.144357 60.44152 40.19173 60.772212 42.832403 C 61.122357 45.458487 60.616592 48.600061 59.264646 52.2474 C 58.851281 53.536126 58.321201 55.11664 57.679269 56.979214 C 57.047064 58.832062 56.366227 60.806488 55.62217 62.902492 C 55.62217 62.985165 55.602718 63.043522 55.573539 63.077564 C 55.539497 63.106743 55.520045 63.160237 55.520045 63.223458 C 55.043459 64.643488 54.985102 65.693922 55.349835 66.369895 C 55.729159 67.045869 56.254375 67.386287 56.935212 67.386287 C 58.617851 67.454371 60.334532 66.063519 62.085254 63.223458 C 63.855429 60.383397 65.722867 56.624206 67.687566 51.95075 C 68.976293 49.042605 70.347692 46.270628 71.796901 43.625092 C 73.250973 40.984418 75.026012 38.805741 77.126879 37.084198 C 79.222883 35.367517 81.858693 34.511608 85.029446 34.511608 C 87.606898 34.511608 89.654271 35.056277 91.171564 36.145616 C 92.69372 37.220365 93.792785 38.596627 94.468758 40.284129 C 95.144731 41.966768 95.48515 43.727217 95.48515 45.560613 C 95.48515 47.919225 95.028017 50.151396 94.123477 52.2474 C 93.214074 54.348267 92.046925 56.040632 90.626895 57.329359 C 89.206864 58.618085 87.713887 59.260016 86.1431 59.260016 C 84.937046 59.260016 84.047096 58.973092 83.468385 58.394381 C 82.889674 57.81567 81.955955 57.523883 80.667229 57.523883 C 79.04781 57.523883 77.61319 58.136636 76.358506 59.357279 C 75.103821 60.582785 73.946399 62.061172 72.891103 63.792443 C 71.850395 65.513986 70.751331 67.196625 69.593909 68.850085 C 68.455939 70.498683 67.172076 71.738778 65.752045 72.565508 Z M 133.947551 82.204208 C 134.341464 81.591455 134.978532 81.367752 135.853894 81.533098 C 136.748707 81.698444 137.512217 82.068041 138.159012 82.646752 C 138.800943 83.225463 138.917658 83.920889 138.504293 84.728166 C 137.565711 86.76095 136.335342 88.856954 134.813186 91.021041 C 133.295893 93.185129 131.394414 94.994209 129.113612 96.448281 C 126.852262 97.902353 124.060832 98.626958 120.739322 98.626958 L 119.528406 98.626958 C 117.033626 102.079772 114.042809 104.83716 110.560816 106.903985 C 107.07396 108.965947 103.431485 110.001791 99.63339 110.001791 C 95.105826 110.001791 91.356362 108.479635 88.384997 105.440187 C 85.413632 102.386148 83.925518 98.223319 83.925518 92.956562 C 83.925518 89.153604 84.620944 85.282562 86.006932 81.33371 C 87.392921 77.370268 89.333305 73.72293 91.828085 70.381968 C 94.337454 67.031279 97.27964 64.337112 100.649781 62.309192 C 104.034511 60.276408 107.75966 59.260016 111.820364 59.260016 C 114.597204 59.260016 117.10171 59.819275 119.329018 60.942655 C 121.561189 62.051446 123.336227 63.894568 124.654132 66.472021 C 125.976901 69.030021 126.638285 72.448793 126.638285 76.728337 C 126.638285 80.312455 126.13252 83.789584 125.125855 87.154862 L 125.821281 87.154862 C 127.309395 87.154862 128.729426 86.770676 130.081372 85.992577 C 131.438182 85.214478 132.726909 83.95493 133.947551 82.204208 Z M 105.430226 88.988258 C 107.112865 88.988258 108.600979 88.487357 109.889706 87.480691 C 111.178432 86.454573 112.194824 85.214478 112.938881 83.765269 C 113.682938 82.311197 114.052535 80.871714 114.052535 79.451683 C 114.052535 77.963569 113.614854 76.704021 112.739493 75.663314 C 111.864132 74.603154 110.444101 74.077937 108.479401 74.077937 C 106.859983 74.077937 105.4205 74.554523 104.165816 75.512557 C 102.911131 76.456002 101.928781 77.652329 101.218766 79.106402 C 100.508751 80.560474 100.153743 82.029136 100.153743 83.51725 C 100.153743 85.000501 100.557382 86.289227 101.369523 87.378566 C 102.1768 88.453315 103.528747 88.988258 105.430226 88.988258 Z M 138.518882 110.001791 C 135.596148 110.001791 133.539049 108.999989 132.347585 107.001247 C 131.175574 105.002506 130.587137 102.517453 130.587137 99.546087 C 130.587137 96.968635 130.912966 94.162616 131.554897 91.123167 C 132.201692 88.083718 133.023559 85.107489 134.035087 82.204208 C 137.483038 72.327215 140.410635 64.040462 142.803289 57.353674 C 145.215396 50.647434 147.535103 45.584928 149.767275 42.166156 C 151.994583 38.747384 154.465047 37.035566 157.173804 37.035566 C 159.269808 37.035566 160.577986 37.813665 161.088614 39.365 C 161.599241 40.916335 161.103203 43.323578 159.6005 46.577004 C 158.331226 49.480286 156.925785 52.305757 155.389039 55.048556 C 153.871746 57.791355 152.806724 60.339629 152.193971 62.703104 C 151.663891 64.799108 151.722248 65.990572 152.369043 66.272633 C 153.010975 66.535241 153.871746 66.121876 154.941632 65.032538 C 156.843112 63.213731 158.807811 61.803427 160.840595 60.796762 C 162.873378 59.770644 165.003424 59.260016 167.230732 59.260016 C 170.338265 59.260016 172.633656 60.174283 174.12177 62.007678 C 175.605022 63.826484 176.349079 66.024614 176.349079 68.602066 C 176.349079 70.352789 176.076744 71.952755 175.532075 73.406827 C 175.001995 74.8609 174.467052 76.28093 173.922383 77.666919 C 173.377713 79.05777 173.105379 80.599379 173.105379 82.30147 C 173.105379 85.686201 174.66644 87.378566 177.788562 87.378566 C 179.339896 87.378566 180.633486 86.892254 181.674193 85.91963 C 182.734353 84.927554 183.765334 83.687459 184.771999 82.204208 C 185.316669 81.392067 186.026684 81.105143 186.902045 81.33371 C 187.796859 81.567139 188.521463 82.019409 189.085585 82.695383 C 189.664296 83.376219 189.751832 84.052193 189.35792 84.728166 C 188.677083 85.817505 187.860079 87.398018 186.902045 89.45998 C 185.963463 91.507353 184.830357 93.705482 183.507589 96.049505 C 182.189684 98.378939 180.643212 100.61111 178.8779 102.741156 C 177.127178 104.871202 175.152752 106.612198 172.954622 107.969008 C 170.756493 109.320955 168.271439 110.001791 165.499462 110.001791 C 162.177952 110.001791 159.858245 108.951358 158.535477 106.855354 C 157.232161 104.754487 156.580503 102.288886 156.580503 99.443962 C 156.580503 96.871372 156.984142 94.415498 157.79142 92.086064 C 158.60356 89.75663 159.396249 87.626585 160.169484 85.695927 C 160.947583 83.765269 161.336633 82.121535 161.336633 80.764725 C 161.336633 79.626755 160.981625 78.751394 160.27161 78.138641 C 159.561595 77.525888 158.627876 77.224375 157.470454 77.224375 C 155.520344 77.224375 153.711264 78.055968 152.043214 79.724018 C 150.394617 81.377478 149.057259 83.522113 148.031142 86.167649 C 147.024476 88.793733 146.518712 91.633794 146.518712 94.687832 L 146.518712 99.249437 C 146.518712 100.932076 146.314461 102.609852 145.901096 104.277901 C 145.50232 105.926498 144.729084 107.297898 143.571662 108.387236 C 142.433693 109.461985 140.746191 110.001791 138.518882 110.001791 Z M 138.518882 110.001791 " stroke="#201e1d" stroke-width="7.611" stroke-opacity="1" stroke-miterlimit="4"/></g><g fill="#ff66c4" fill-opacity="1"><g transform="translate(34.935341, 97.762653)"><g><path d="M 71.484375 -22.328125 C 71.921875 -22.984375 72.492188 -23.21875 73.203125 -23.03125 C 73.910156 -22.84375 74.492188 -22.472656 74.953125 -21.921875 C 75.410156 -21.378906 75.476562 -20.835938 75.15625 -20.296875 C 74.613281 -19.429688 73.960938 -18.164062 73.203125 -16.5 C 72.441406 -14.84375 71.53125 -13.078125 70.46875 -11.203125 C 69.40625 -9.328125 68.164062 -7.535156 66.75 -5.828125 C 65.34375 -4.117188 63.753906 -2.71875 61.984375 -1.625 C 60.222656 -0.539062 58.226562 0 56 0 C 54.09375 0 52.554688 -0.539062 51.390625 -1.625 C 50.222656 -2.71875 49.378906 -4.1875 48.859375 -6.03125 C 48.347656 -7.875 48.09375 -9.910156 48.09375 -12.140625 C 48.09375 -13.171875 48.144531 -14.257812 48.25 -15.40625 C 48.363281 -16.550781 48.53125 -17.75 48.75 -19 C 47.007812 -19.101562 45.3125 -19.265625 43.65625 -19.484375 C 42 -19.703125 40.378906 -20 38.796875 -20.375 C 38.304688 -19.507812 37.816406 -18.628906 37.328125 -17.734375 C 36.835938 -16.835938 36.347656 -15.953125 35.859375 -15.078125 C 34.015625 -11.867188 31.882812 -8.851562 29.46875 -6.03125 C 27.050781 -3.207031 24.46875 -0.925781 21.71875 0.8125 C 18.976562 2.550781 16.140625 3.421875 13.203125 3.421875 C 9.503906 3.421875 6.5 2.753906 4.1875 1.421875 C 1.882812 0.0859375 0.203125 -1.632812 -0.859375 -3.75 C -1.921875 -5.863281 -2.453125 -8.035156 -2.453125 -10.265625 C -2.453125 -12.492188 -2 -14.628906 -1.09375 -16.671875 C -0.195312 -18.710938 1.0625 -20.367188 2.6875 -21.640625 C 4.320312 -22.921875 6.222656 -23.5625 8.390625 -23.5625 C 9.210938 -23.5625 9.625 -23.234375 9.625 -22.578125 C 9.625 -20.785156 10.394531 -19.332031 11.9375 -18.21875 C 13.488281 -17.101562 15.378906 -16.546875 17.609375 -16.546875 C 20.160156 -16.546875 22.507812 -17.171875 24.65625 -18.421875 C 26.800781 -19.671875 28.800781 -21.351562 30.65625 -23.46875 C 26.46875 -25.59375 23.148438 -28.335938 20.703125 -31.703125 C 18.253906 -35.078125 17.03125 -38.800781 17.03125 -42.875 C 17.03125 -45.757812 17.640625 -48.175781 18.859375 -50.125 C 20.085938 -52.082031 21.707031 -53.578125 23.71875 -54.609375 C 25.726562 -55.648438 27.875 -56.171875 30.15625 -56.171875 C 33.257812 -56.171875 35.53125 -55.367188 36.96875 -53.765625 C 38.40625 -52.160156 39.125 -50.40625 39.125 -48.5 C 39.175781 -47.90625 39.039062 -47.414062 38.71875 -47.03125 C 38.394531 -46.65625 37.929688 -46.492188 37.328125 -46.546875 C 36.296875 -46.648438 35.25 -46.507812 34.1875 -46.125 C 33.132812 -45.75 32.253906 -45.03125 31.546875 -43.96875 C 30.835938 -42.914062 30.484375 -41.382812 30.484375 -39.375 C 30.484375 -35.1875 32.003906 -31.816406 35.046875 -29.265625 C 35.429688 -29.859375 35.800781 -30.46875 36.15625 -31.09375 C 36.507812 -31.71875 36.875 -32.359375 37.25 -33.015625 C 41.382812 -40.460938 45.328125 -46.234375 49.078125 -50.328125 C 52.828125 -54.429688 56.382812 -57.285156 59.75 -58.890625 C 63.125 -60.492188 66.300781 -61.296875 69.28125 -61.296875 C 72.164062 -61.296875 74.285156 -60.519531 75.640625 -58.96875 C 77.003906 -57.425781 77.6875 -55.539062 77.6875 -53.3125 C 77.632812 -50.695312 77.019531 -48.453125 75.84375 -46.578125 C 74.675781 -44.710938 73.222656 -43.78125 71.484375 -43.78125 C 70.941406 -43.78125 70.453125 -43.925781 70.015625 -44.21875 C 69.585938 -44.519531 69.070312 -44.644531 68.46875 -44.59375 C 67.65625 -44.59375 66.757812 -43.882812 65.78125 -42.46875 C 64.800781 -41.050781 63.796875 -38.660156 62.765625 -35.296875 C 62.273438 -33.609375 61.796875 -31.8125 61.328125 -29.90625 C 60.867188 -28.007812 60.640625 -26.273438 60.640625 -24.703125 C 60.640625 -23.015625 60.953125 -21.640625 61.578125 -20.578125 C 62.203125 -19.523438 63.28125 -19 64.8125 -19 C 66.0625 -19 67.296875 -19.253906 68.515625 -19.765625 C 69.734375 -20.285156 70.722656 -21.140625 71.484375 -22.328125 Z M 49.96875 -24.53125 C 51.050781 -28.34375 52.066406 -31.375 53.015625 -33.625 C 53.972656 -35.882812 54.75 -37.691406 55.34375 -39.046875 C 55.945312 -40.398438 56.25 -41.625 56.25 -42.71875 C 56.25 -43.476562 55.921875 -43.859375 55.265625 -43.859375 C 54.722656 -43.859375 54.148438 -43.648438 53.546875 -43.234375 C 52.953125 -42.828125 52.054688 -41.921875 50.859375 -40.515625 C 49.234375 -38.390625 47.671875 -36.078125 46.171875 -33.578125 C 44.679688 -31.078125 43.203125 -28.5 41.734375 -25.84375 C 42.929688 -25.457031 44.222656 -25.171875 45.609375 -24.984375 C 46.992188 -24.796875 48.445312 -24.644531 49.96875 -24.53125 Z M 49.96875 -24.53125 "/></g></g></g><g fill="#ff66c4" fill-opacity="1"><g transform="translate(104.539569, 97.762653)"><g><path d="M 6.921875 0 C 4.046875 0 2.035156 -0.800781 0.890625 -2.40625 C -0.242188 -4.007812 -0.8125 -6.003906 -0.8125 -8.390625 C -0.8125 -10.460938 -0.550781 -12.71875 -0.03125 -15.15625 C 0.476562 -17.601562 1.140625 -19.992188 1.953125 -22.328125 C 4.722656 -30.265625 7.070312 -36.921875 9 -42.296875 C 10.9375 -47.679688 12.800781 -51.742188 14.59375 -54.484375 C 16.382812 -57.234375 18.367188 -58.609375 20.546875 -58.609375 C 22.222656 -58.609375 23.28125 -57.96875 23.71875 -56.6875 C 24.15625 -55.414062 23.75 -53.503906 22.5 -50.953125 C 20.269531 -46.441406 18.351562 -42.269531 16.75 -38.4375 C 15.144531 -34.601562 13.882812 -30.972656 12.96875 -27.546875 C 12.53125 -25.972656 12.210938 -24.46875 12.015625 -23.03125 C 11.828125 -21.59375 12.003906 -20.421875 12.546875 -19.515625 C 13.097656 -18.617188 14.1875 -18.171875 15.8125 -18.171875 C 17.226562 -18.171875 18.460938 -18.535156 19.515625 -19.265625 C 20.578125 -20.003906 21.546875 -21.023438 22.421875 -22.328125 C 22.847656 -22.984375 23.414062 -23.21875 24.125 -23.03125 C 24.832031 -22.84375 25.414062 -22.472656 25.875 -21.921875 C 26.34375 -21.378906 26.410156 -20.835938 26.078125 -20.296875 C 25.535156 -19.429688 24.882812 -18.164062 24.125 -16.5 C 23.363281 -14.84375 22.453125 -13.078125 21.390625 -11.203125 C 20.335938 -9.328125 19.101562 -7.535156 17.6875 -5.828125 C 16.269531 -4.117188 14.675781 -2.71875 12.90625 -1.625 C 11.144531 -0.539062 9.148438 0 6.921875 0 Z M 6.921875 0 "/></g></g></g><g fill="#ff66c4" fill-opacity="1"><g transform="translate(125.078527, 97.762653)"><g><path d="M 6.921875 0 C 4.046875 0 2.035156 -0.800781 0.890625 -2.40625 C -0.242188 -4.007812 -0.8125 -6.003906 -0.8125 -8.390625 C -0.8125 -10.460938 -0.550781 -12.71875 -0.03125 -15.15625 C 0.476562 -17.601562 1.140625 -19.992188 1.953125 -22.328125 C 4.722656 -30.265625 7.070312 -36.921875 9 -42.296875 C 10.9375 -47.679688 12.800781 -51.742188 14.59375 -54.484375 C 16.382812 -57.234375 18.367188 -58.609375 20.546875 -58.609375 C 22.222656 -58.609375 23.28125 -57.96875 23.71875 -56.6875 C 24.15625 -55.414062 23.75 -53.503906 22.5 -50.953125 C 20.269531 -46.441406 18.351562 -42.269531 16.75 -38.4375 C 15.144531 -34.601562 13.882812 -30.972656 12.96875 -27.546875 C 12.53125 -25.972656 12.210938 -24.46875 12.015625 -23.03125 C 11.828125 -21.59375 12.003906 -20.421875 12.546875 -19.515625 C 13.097656 -18.617188 14.1875 -18.171875 15.8125 -18.171875 C 17.226562 -18.171875 18.460938 -18.535156 19.515625 -19.265625 C 20.578125 -20.003906 21.546875 -21.023438 22.421875 -22.328125 C 22.847656 -22.984375 23.414062 -23.21875 24.125 -23.03125 C 24.832031 -22.84375 25.414062 -22.472656 25.875 -21.921875 C 26.34375 -21.378906 26.410156 -20.835938 26.078125 -20.296875 C 25.535156 -19.429688 24.882812 -18.164062 24.125 -16.5 C 23.363281 -14.84375 22.453125 -13.078125 21.390625 -11.203125 C 20.335938 -9.328125 19.101562 -7.535156 17.6875 -5.828125 C 16.269531 -4.117188 14.675781 -2.71875 12.90625 -1.625 C 11.144531 -0.539062 9.148438 0 6.921875 0 Z M 6.921875 0 "/></g></g></g><g fill="#ff66c4" fill-opacity="1"><g transform="translate(145.617485, 97.762653)"><g><path d="M 16.390625 -44.09375 C 14.429688 -44.09375 12.742188 -44.515625 11.328125 -45.359375 C 9.921875 -46.203125 9.21875 -47.710938 9.21875 -49.890625 C 9.21875 -52.765625 10.015625 -54.734375 11.609375 -55.796875 C 13.210938 -56.859375 15.128906 -57.390625 17.359375 -57.390625 C 19.421875 -57.390625 21.171875 -56.925781 22.609375 -56 C 24.054688 -55.070312 24.671875 -53.332031 24.453125 -50.78125 C 24.234375 -48.28125 23.363281 -46.539062 21.84375 -45.5625 C 20.320312 -44.582031 18.503906 -44.09375 16.390625 -44.09375 Z M 7.34375 0 C 4.625 0 2.691406 -0.988281 1.546875 -2.96875 C 0.410156 -4.957031 -0.15625 -7.363281 -0.15625 -10.1875 C -0.15625 -12.09375 0.03125 -14.101562 0.40625 -16.21875 C 0.789062 -18.34375 1.28125 -20.378906 1.875 -22.328125 C 3.78125 -28.253906 5.628906 -32.804688 7.421875 -35.984375 C 9.210938 -39.160156 11.273438 -40.75 13.609375 -40.75 C 15.460938 -40.75 16.390625 -39.53125 16.390625 -37.09375 C 16.390625 -35.457031 16.078125 -33.785156 15.453125 -32.078125 C 14.828125 -30.367188 14.210938 -28.679688 13.609375 -27.015625 C 13.015625 -25.359375 12.71875 -23.796875 12.71875 -22.328125 C 12.71875 -20.972656 13.054688 -19.957031 13.734375 -19.28125 C 14.410156 -18.601562 15.296875 -18.265625 16.390625 -18.265625 C 17.640625 -18.265625 18.679688 -18.644531 19.515625 -19.40625 C 20.359375 -20.164062 21.191406 -21.140625 22.015625 -22.328125 C 22.441406 -22.984375 22.992188 -23.226562 23.671875 -23.0625 C 24.359375 -22.90625 24.929688 -22.539062 25.390625 -21.96875 C 25.847656 -21.394531 25.941406 -20.863281 25.671875 -20.375 C 25.128906 -19.507812 24.488281 -18.257812 23.75 -16.625 C 23.019531 -15 22.140625 -13.234375 21.109375 -11.328125 C 20.078125 -9.429688 18.894531 -7.625 17.5625 -5.90625 C 16.226562 -4.195312 14.71875 -2.785156 13.03125 -1.671875 C 11.351562 -0.554688 9.457031 0 7.34375 0 Z M 7.34375 0 "/></g></g></g><g fill="#ff66c4" fill-opacity="1"><g transform="translate(165.667409, 97.762653)"><g><path d="M 33.5 -22.328125 C 33.9375 -22.984375 34.492188 -23.21875 35.171875 -23.03125 C 35.847656 -22.84375 36.414062 -22.472656 36.875 -21.921875 C 37.34375 -21.378906 37.441406 -20.835938 37.171875 -20.296875 C 36.734375 -19.367188 36.09375 -18.078125 35.25 -16.421875 C 34.40625 -14.765625 33.34375 -13 32.0625 -11.125 C 30.789062 -9.25 29.242188 -7.46875 27.421875 -5.78125 C 25.609375 -4.101562 23.519531 -2.734375 21.15625 -1.671875 C 18.789062 -0.609375 16.085938 -0.078125 13.046875 -0.078125 C 9.453125 -0.078125 6.609375 -0.835938 4.515625 -2.359375 C 2.429688 -3.878906 1.007812 -5.804688 0.25 -8.140625 C -0.507812 -10.484375 -0.726562 -12.929688 -0.40625 -15.484375 C -0.0820312 -18.035156 0.675781 -20.316406 1.875 -22.328125 L 2.203125 -22.828125 C 3.671875 -24.785156 5.125 -26.914062 6.5625 -29.21875 C 8 -31.53125 9.476562 -33.703125 11 -35.734375 C 12.519531 -37.773438 14.09375 -39.460938 15.71875 -40.796875 C 17.351562 -42.128906 19.039062 -42.796875 20.78125 -42.796875 C 23.34375 -42.796875 25.234375 -42.195312 26.453125 -41 C 27.671875 -39.800781 28.253906 -38.550781 28.203125 -37.25 C 28.203125 -36.601562 27.914062 -36.0625 27.34375 -35.625 C 26.78125 -35.1875 26.101562 -34.789062 25.3125 -34.4375 C 24.519531 -34.082031 23.820312 -33.644531 23.21875 -33.125 C 22.625 -32.613281 22.328125 -31.953125 22.328125 -31.140625 C 22.328125 -30.648438 22.707031 -29.671875 23.46875 -28.203125 C 24.238281 -26.734375 25.054688 -25.085938 25.921875 -23.265625 C 26.785156 -21.453125 27.382812 -19.703125 27.71875 -18.015625 C 28.96875 -18.066406 30.039062 -18.5 30.9375 -19.3125 C 31.832031 -20.132812 32.6875 -21.140625 33.5 -22.328125 Z M 10.109375 -16.875 C 11.898438 -16.875 13.285156 -17.441406 14.265625 -18.578125 C 15.242188 -19.722656 15.734375 -21.140625 15.734375 -22.828125 C 15.734375 -23.804688 15.582031 -24.8125 15.28125 -25.84375 C 14.976562 -26.875 14.53125 -27.929688 13.9375 -29.015625 C 13.394531 -30.109375 12.742188 -30.109375 11.984375 -29.015625 C 10.953125 -27.492188 9.847656 -25.957031 8.671875 -24.40625 C 7.503906 -22.863281 6.460938 -21.492188 5.546875 -20.296875 C 5.546875 -19.316406 5.960938 -18.5 6.796875 -17.84375 C 7.640625 -17.195312 8.742188 -16.875 10.109375 -16.875 Z M 10.109375 -16.875 "/></g></g></g><g fill="#ff66c4" fill-opacity="1"><g transform="translate(197.209377, 97.762653)"><g><path d="M 40.671875 -22.328125 C 41.003906 -22.816406 41.519531 -22.992188 42.21875 -22.859375 C 42.925781 -22.722656 43.535156 -22.425781 44.046875 -21.96875 C 44.566406 -21.507812 44.664062 -20.953125 44.34375 -20.296875 C 43.582031 -18.671875 42.585938 -16.988281 41.359375 -15.25 C 40.140625 -13.507812 38.617188 -12.050781 36.796875 -10.875 C 34.984375 -9.707031 32.742188 -9.125 30.078125 -9.125 L 29.09375 -9.125 C 27.082031 -6.351562 24.675781 -4.140625 21.875 -2.484375 C 19.082031 -0.828125 16.164062 0 13.125 0 C 9.476562 0 6.457031 -1.222656 4.0625 -3.671875 C 1.675781 -6.117188 0.484375 -9.457031 0.484375 -13.6875 C 0.484375 -16.738281 1.039062 -19.851562 2.15625 -23.03125 C 3.269531 -26.207031 4.832031 -29.140625 6.84375 -31.828125 C 8.851562 -34.515625 11.21875 -36.671875 13.9375 -38.296875 C 16.65625 -39.929688 19.644531 -40.75 22.90625 -40.75 C 25.132812 -40.75 27.144531 -40.300781 28.9375 -39.40625 C 30.726562 -38.507812 32.15625 -37.03125 33.21875 -34.96875 C 34.28125 -32.90625 34.8125 -30.160156 34.8125 -26.734375 C 34.8125 -23.859375 34.398438 -21.0625 33.578125 -18.34375 L 34.15625 -18.34375 C 35.351562 -18.34375 36.492188 -18.65625 37.578125 -19.28125 C 38.660156 -19.90625 39.691406 -20.921875 40.671875 -22.328125 Z M 17.765625 -16.875 C 19.128906 -16.875 20.328125 -17.28125 21.359375 -18.09375 C 22.390625 -18.90625 23.203125 -19.894531 23.796875 -21.0625 C 24.398438 -22.238281 24.703125 -23.394531 24.703125 -24.53125 C 24.703125 -25.726562 24.347656 -26.75 23.640625 -27.59375 C 22.929688 -28.4375 21.789062 -28.859375 20.21875 -28.859375 C 18.914062 -28.859375 17.757812 -28.476562 16.75 -27.71875 C 15.75 -26.957031 14.960938 -25.988281 14.390625 -24.8125 C 13.816406 -23.644531 13.53125 -22.46875 13.53125 -21.28125 C 13.53125 -20.082031 13.851562 -19.046875 14.5 -18.171875 C 15.15625 -17.304688 16.242188 -16.875 17.765625 -16.875 Z M 17.765625 -16.875 "/></g></g></g><g fill="#ff66c4" fill-opacity="1"><g transform="translate(236.005175, 97.762653)"><g><path d="M 5.140625 0 C 3.234375 0 1.765625 -0.566406 0.734375 -1.703125 C -0.296875 -2.847656 -0.8125 -4.265625 -0.8125 -5.953125 C -0.8125 -7.847656 -0.59375 -10.222656 -0.15625 -13.078125 C 0.269531 -15.929688 0.945312 -19.015625 1.875 -22.328125 C 2.800781 -25.535156 3.820312 -28.539062 4.9375 -31.34375 C 6.050781 -34.144531 7.191406 -36.410156 8.359375 -38.140625 C 9.523438 -39.878906 10.625 -40.75 11.65625 -40.75 C 12.738281 -40.75 13.457031 -40.4375 13.8125 -39.8125 C 14.164062 -39.195312 14.34375 -38.476562 14.34375 -37.65625 C 14.34375 -36.082031 14.722656 -35.101562 15.484375 -34.71875 C 16.242188 -34.34375 17.273438 -34.804688 18.578125 -36.109375 C 20.109375 -37.578125 21.6875 -38.71875 23.3125 -39.53125 C 24.945312 -40.34375 26.660156 -40.75 28.453125 -40.75 C 30.953125 -40.75 32.796875 -40.015625 33.984375 -38.546875 C 35.179688 -37.085938 35.78125 -35.328125 35.78125 -33.265625 C 35.78125 -31.847656 35.5625 -30.554688 35.125 -29.390625 C 34.695312 -28.222656 34.265625 -27.082031 33.828125 -25.96875 C 33.390625 -24.851562 33.171875 -23.613281 33.171875 -22.25 C 33.171875 -19.53125 34.476562 -18.171875 37.09375 -18.171875 C 38.34375 -18.171875 39.382812 -18.566406 40.21875 -19.359375 C 41.0625 -20.148438 41.894531 -21.140625 42.71875 -22.328125 C 43.144531 -22.984375 43.710938 -23.21875 44.421875 -23.03125 C 45.128906 -22.84375 45.710938 -22.472656 46.171875 -21.921875 C 46.640625 -21.378906 46.707031 -20.835938 46.375 -20.296875 C 45.832031 -19.429688 45.179688 -18.164062 44.421875 -16.5 C 43.660156 -14.84375 42.75 -13.078125 41.6875 -11.203125 C 40.632812 -9.328125 39.398438 -7.535156 37.984375 -5.828125 C 36.566406 -4.117188 34.972656 -2.71875 33.203125 -1.625 C 31.441406 -0.539062 29.445312 0 27.21875 0 C 24.664062 0 22.875 -0.835938 21.84375 -2.515625 C 20.8125 -4.203125 20.296875 -6.191406 20.296875 -8.484375 C 20.296875 -10.546875 20.582031 -12.515625 21.15625 -14.390625 C 21.726562 -16.265625 22.296875 -17.972656 22.859375 -19.515625 C 23.429688 -21.066406 23.71875 -22.382812 23.71875 -23.46875 C 23.71875 -24.394531 23.429688 -25.101562 22.859375 -25.59375 C 22.296875 -26.082031 21.550781 -26.328125 20.625 -26.328125 C 19.050781 -26.328125 17.597656 -25.660156 16.265625 -24.328125 C 14.929688 -22.992188 13.851562 -21.269531 13.03125 -19.15625 C 12.21875 -17.039062 11.8125 -14.757812 11.8125 -12.3125 L 11.8125 -8.640625 C 11.8125 -7.285156 11.648438 -5.941406 11.328125 -4.609375 C 11.003906 -3.273438 10.363281 -2.171875 9.40625 -1.296875 C 8.457031 -0.429688 7.035156 0 5.140625 0 Z M 5.140625 0 "/></g></g></g><g fill="#ff66c4" fill-opacity="1"><g transform="translate(276.848578, 97.762653)"><g/></g></g><g fill="#ff66c4" fill-opacity="1"><g transform="translate(34.935341, 146.76028)"><g><path d="M 52.828125 -30.078125 C 52.390625 -29.859375 52.140625 -29.546875 52.078125 -29.140625 C 52.023438 -28.734375 52.109375 -28.421875 52.328125 -28.203125 C 53.472656 -27.335938 54.273438 -26.265625 54.734375 -24.984375 C 55.203125 -23.703125 55.609375 -22.453125 55.953125 -21.234375 C 56.304688 -20.015625 56.835938 -18.984375 57.546875 -18.140625 C 58.253906 -17.296875 59.394531 -16.875 60.96875 -16.875 C 62.757812 -16.875 64.238281 -17.375 65.40625 -18.375 C 66.582031 -19.382812 67.710938 -20.703125 68.796875 -22.328125 C 69.234375 -22.984375 69.789062 -23.226562 70.46875 -23.0625 C 71.144531 -22.90625 71.703125 -22.539062 72.140625 -21.96875 C 72.578125 -21.394531 72.6875 -20.835938 72.46875 -20.296875 C 71.488281 -17.847656 70.304688 -15.425781 68.921875 -13.03125 C 67.535156 -10.644531 65.972656 -8.457031 64.234375 -6.46875 C 62.492188 -4.488281 60.59375 -2.914062 58.53125 -1.75 C 56.46875 -0.582031 54.289062 0 52 0 C 49.5625 0 47.726562 -0.597656 46.5 -1.796875 C 45.28125 -2.992188 44.4375 -4.53125 43.96875 -6.40625 C 43.507812 -8.28125 43.28125 -10.257812 43.28125 -12.34375 C 43.28125 -14.4375 43.332031 -16.421875 43.4375 -18.296875 C 43.550781 -20.171875 43.515625 -21.707031 43.328125 -22.90625 C 43.140625 -24.101562 42.632812 -24.703125 41.8125 -24.703125 C 41.269531 -24.703125 40.796875 -24.523438 40.390625 -24.171875 C 39.984375 -23.816406 39.535156 -22.929688 39.046875 -21.515625 C 36.054688 -12.660156 32.46875 -6.289062 28.28125 -2.40625 C 24.101562 1.476562 19 3.421875 12.96875 3.421875 C 9.21875 3.421875 6.078125 2.753906 3.546875 1.421875 C 1.015625 0.0859375 -0.882812 -1.71875 -2.15625 -4 C -3.4375 -6.28125 -4.078125 -8.804688 -4.078125 -11.578125 C -4.078125 -13.742188 -3.65625 -15.789062 -2.8125 -17.71875 C -1.96875 -19.65625 -0.800781 -21.25 0.6875 -22.5 C 2.1875 -23.75 3.941406 -24.375 5.953125 -24.375 C 6.765625 -24.375 7.171875 -24.046875 7.171875 -23.390625 C 7.171875 -21.378906 8.023438 -19.734375 9.734375 -18.453125 C 11.453125 -17.179688 13.5625 -16.546875 16.0625 -16.546875 C 17.851562 -16.546875 19.738281 -17.019531 21.71875 -17.96875 C 23.707031 -18.925781 25.625 -20.4375 27.46875 -22.5 C 29.320312 -24.5625 30.867188 -27.222656 32.109375 -30.484375 C 33.203125 -33.253906 34.359375 -36.117188 35.578125 -39.078125 C 36.804688 -42.046875 37.960938 -44.890625 39.046875 -47.609375 C 36.003906 -48.421875 33.394531 -48.363281 31.21875 -47.4375 C 29.039062 -46.519531 27.394531 -45.160156 26.28125 -43.359375 C 25.175781 -41.566406 24.625 -39.691406 24.625 -37.734375 C 24.625 -36.546875 24.921875 -35.554688 25.515625 -34.765625 C 26.109375 -33.972656 26.84375 -33.578125 27.71875 -33.578125 C 28.09375 -32.710938 28.117188 -31.664062 27.796875 -30.4375 C 27.472656 -29.21875 26.832031 -28.050781 25.875 -26.9375 C 24.925781 -25.820312 23.703125 -24.882812 22.203125 -24.125 C 20.710938 -23.363281 18.988281 -22.984375 17.03125 -22.984375 C 14.800781 -22.984375 12.925781 -23.484375 11.40625 -24.484375 C 9.882812 -25.492188 8.742188 -26.800781 7.984375 -28.40625 C 7.222656 -30.007812 6.84375 -31.734375 6.84375 -33.578125 C 6.84375 -37.273438 7.550781 -40.738281 8.96875 -43.96875 C 10.382812 -47.207031 12.378906 -50.085938 14.953125 -52.609375 C 17.535156 -55.140625 20.632812 -57.109375 24.25 -58.515625 C 27.863281 -59.929688 31.875 -60.640625 36.28125 -60.640625 C 40.351562 -60.640625 43.394531 -60.054688 45.40625 -58.890625 C 47.414062 -57.722656 48.554688 -56.078125 48.828125 -53.953125 C 49.097656 -51.835938 48.691406 -49.3125 47.609375 -46.375 C 47.273438 -45.34375 46.847656 -44.078125 46.328125 -42.578125 C 45.816406 -41.085938 45.265625 -39.503906 44.671875 -37.828125 C 44.671875 -37.765625 44.65625 -37.71875 44.625 -37.6875 C 44.601562 -37.664062 44.59375 -37.628906 44.59375 -37.578125 C 44.207031 -36.429688 44.164062 -35.585938 44.46875 -35.046875 C 44.769531 -34.503906 45.191406 -34.234375 45.734375 -34.234375 C 47.085938 -34.179688 48.46875 -35.296875 49.875 -37.578125 C 51.289062 -39.859375 52.789062 -42.875 54.375 -46.625 C 55.40625 -48.957031 56.503906 -51.179688 57.671875 -53.296875 C 58.835938 -55.421875 60.265625 -57.175781 61.953125 -58.5625 C 63.640625 -59.945312 65.757812 -60.640625 68.3125 -60.640625 C 70.375 -60.640625 72.015625 -60.207031 73.234375 -59.34375 C 74.460938 -58.476562 75.347656 -57.363281 75.890625 -56 C 76.429688 -54.644531 76.703125 -53.234375 76.703125 -51.765625 C 76.703125 -49.859375 76.332031 -48.0625 75.59375 -46.375 C 74.863281 -44.695312 73.925781 -43.335938 72.78125 -42.296875 C 71.644531 -41.265625 70.453125 -40.75 69.203125 -40.75 C 68.222656 -40.75 67.503906 -40.976562 67.046875 -41.4375 C 66.585938 -41.90625 65.84375 -42.140625 64.8125 -42.140625 C 63.5 -42.140625 62.335938 -41.648438 61.328125 -40.671875 C 60.328125 -39.691406 59.40625 -38.507812 58.5625 -37.125 C 57.726562 -35.738281 56.847656 -34.378906 55.921875 -33.046875 C 54.992188 -31.722656 53.960938 -30.734375 52.828125 -30.078125 Z M 52.828125 -30.078125 "/></g></g></g><g fill="#ff66c4" fill-opacity="1"><g transform="translate(101.849949, 146.76028)"><g><path d="M 40.671875 -22.328125 C 41.003906 -22.816406 41.519531 -22.992188 42.21875 -22.859375 C 42.925781 -22.722656 43.535156 -22.425781 44.046875 -21.96875 C 44.566406 -21.507812 44.664062 -20.953125 44.34375 -20.296875 C 43.582031 -18.671875 42.585938 -16.988281 41.359375 -15.25 C 40.140625 -13.507812 38.617188 -12.050781 36.796875 -10.875 C 34.984375 -9.707031 32.742188 -9.125 30.078125 -9.125 L 29.09375 -9.125 C 27.082031 -6.351562 24.675781 -4.140625 21.875 -2.484375 C 19.082031 -0.828125 16.164062 0 13.125 0 C 9.476562 0 6.457031 -1.222656 4.0625 -3.671875 C 1.675781 -6.117188 0.484375 -9.457031 0.484375 -13.6875 C 0.484375 -16.738281 1.039062 -19.851562 2.15625 -23.03125 C 3.269531 -26.207031 4.832031 -29.140625 6.84375 -31.828125 C 8.851562 -34.515625 11.21875 -36.671875 13.9375 -38.296875 C 16.65625 -39.929688 19.644531 -40.75 22.90625 -40.75 C 25.132812 -40.75 27.144531 -40.300781 28.9375 -39.40625 C 30.726562 -38.507812 32.15625 -37.03125 33.21875 -34.96875 C 34.28125 -32.90625 34.8125 -30.160156 34.8125 -26.734375 C 34.8125 -23.859375 34.398438 -21.0625 33.578125 -18.34375 L 34.15625 -18.34375 C 35.351562 -18.34375 36.492188 -18.65625 37.578125 -19.28125 C 38.660156 -19.90625 39.691406 -20.921875 40.671875 -22.328125 Z M 17.765625 -16.875 C 19.128906 -16.875 20.328125 -17.28125 21.359375 -18.09375 C 22.390625 -18.90625 23.203125 -19.894531 23.796875 -21.0625 C 24.398438 -22.238281 24.703125 -23.394531 24.703125 -24.53125 C 24.703125 -25.726562 24.347656 -26.75 23.640625 -27.59375 C 22.929688 -28.4375 21.789062 -28.859375 20.21875 -28.859375 C 18.914062 -28.859375 17.757812 -28.476562 16.75 -27.71875 C 15.75 -26.957031 14.960938 -25.988281 14.390625 -24.8125 C 13.816406 -23.644531 13.53125 -22.46875 13.53125 -21.28125 C 13.53125 -20.082031 13.851562 -19.046875 14.5 -18.171875 C 15.15625 -17.304688 16.242188 -16.875 17.765625 -16.875 Z M 17.765625 -16.875 "/></g></g></g><g fill="#ff66c4" fill-opacity="1"><g transform="translate(140.645747, 146.76028)"><g><path d="M 5.546875 0 C 3.203125 0 1.554688 -0.800781 0.609375 -2.40625 C -0.335938 -4.007812 -0.8125 -6.003906 -0.8125 -8.390625 C -0.8125 -10.460938 -0.550781 -12.71875 -0.03125 -15.15625 C 0.476562 -17.601562 1.140625 -19.992188 1.953125 -22.328125 C 4.722656 -30.265625 7.070312 -36.921875 9 -42.296875 C 10.9375 -47.679688 12.800781 -51.742188 14.59375 -54.484375 C 16.382812 -57.234375 18.367188 -58.609375 20.546875 -58.609375 C 22.222656 -58.609375 23.265625 -57.984375 23.671875 -56.734375 C 24.085938 -55.484375 23.695312 -53.554688 22.5 -50.953125 C 21.46875 -48.609375 20.335938 -46.335938 19.109375 -44.140625 C 17.890625 -41.941406 17.035156 -39.890625 16.546875 -37.984375 C 16.109375 -36.296875 16.144531 -35.34375 16.65625 -35.125 C 17.175781 -34.914062 17.875 -35.242188 18.75 -36.109375 C 20.269531 -37.578125 21.84375 -38.71875 23.46875 -39.53125 C 25.101562 -40.34375 26.816406 -40.75 28.609375 -40.75 C 31.109375 -40.75 32.957031 -40.015625 34.15625 -38.546875 C 35.351562 -37.085938 35.953125 -35.328125 35.953125 -33.265625 C 35.953125 -31.847656 35.734375 -30.554688 35.296875 -29.390625 C 34.859375 -28.222656 34.421875 -27.082031 33.984375 -25.96875 C 33.554688 -24.851562 33.34375 -23.613281 33.34375 -22.25 C 33.34375 -19.53125 34.59375 -18.171875 37.09375 -18.171875 C 38.34375 -18.171875 39.382812 -18.566406 40.21875 -19.359375 C 41.0625 -20.148438 41.894531 -21.140625 42.71875 -22.328125 C 43.144531 -22.984375 43.710938 -23.21875 44.421875 -23.03125 C 45.128906 -22.84375 45.710938 -22.472656 46.171875 -21.921875 C 46.640625 -21.378906 46.707031 -20.835938 46.375 -20.296875 C 45.832031 -19.429688 45.179688 -18.164062 44.421875 -16.5 C 43.660156 -14.84375 42.75 -13.078125 41.6875 -11.203125 C 40.632812 -9.328125 39.398438 -7.535156 37.984375 -5.828125 C 36.566406 -4.117188 34.972656 -2.71875 33.203125 -1.625 C 31.441406 -0.539062 29.445312 0 27.21875 0 C 24.5625 0 22.703125 -0.835938 21.640625 -2.515625 C 20.578125 -4.203125 20.046875 -6.191406 20.046875 -8.484375 C 20.046875 -10.546875 20.375 -12.515625 21.03125 -14.390625 C 21.6875 -16.265625 22.328125 -17.972656 22.953125 -19.515625 C 23.578125 -21.066406 23.890625 -22.382812 23.890625 -23.46875 C 23.890625 -24.394531 23.601562 -25.101562 23.03125 -25.59375 C 22.457031 -26.082031 21.707031 -26.328125 20.78125 -26.328125 C 19.207031 -26.328125 17.753906 -25.660156 16.421875 -24.328125 C 15.085938 -22.992188 14.015625 -21.269531 13.203125 -19.15625 C 12.390625 -17.039062 11.984375 -14.757812 11.984375 -12.3125 L 11.984375 -8.640625 C 11.984375 -7.285156 11.816406 -5.941406 11.484375 -4.609375 C 11.160156 -3.273438 10.535156 -2.171875 9.609375 -1.296875 C 8.691406 -0.429688 7.335938 0 5.546875 0 Z M 5.546875 0 "/></g></g></g><g clip-path="url(#8533b3b013)"><path fill="#201e1d" d="M 244.308594 125.855469 C 230.863281 128.332031 228.859375 130.339844 226.382812 143.785156 C 223.90625 130.339844 221.902344 128.332031 208.457031 125.855469 C 221.902344 123.382812 223.90625 121.375 226.382812 107.929688 C 228.859375 121.375 230.863281 123.382812 244.308594 125.855469 Z M 244.308594 125.855469 " fill-opacity="1" fill-rule="nonzero"/></g><g clip-path="url(#17291fce0e)"><path fill="#ff914d" d="M 239.8125 122.171875 C 227.511719 124.4375 225.675781 126.273438 223.414062 138.574219 C 221.148438 126.273438 219.3125 124.4375 207.011719 122.171875 C 219.3125 119.910156 221.148438 118.074219 223.414062 105.769531 C 225.675781 118.074219 227.511719 119.910156 239.8125 122.171875 Z M 239.8125 122.171875 " fill-opacity="1" fill-rule="nonzero"/></g></svg>